<svg width="208" height="205" viewBox="0 0 208 205" fill="none" xmlns="http://www.w3.org/2000/svg">
<path d="M108.621 28.5647C108.865 28.6108 109.11 28.657 109.361 28.7044C115.182 30.0275 120.816 34.1163 124.048 39.1012C125.597 41.7122 126.642 44.3397 127.38 47.2876C127.42 47.451 127.462 47.6143 127.504 47.7826C127.823 49.1923 127.869 50.5656 127.862 52.0074C127.86 52.2463 127.86 52.4851 127.859 52.7313C127.834 54.53 127.67 56.1613 127.171 57.8973C127.105 58.1422 127.039 58.387 126.971 58.6392C125.044 65.0697 120.479 70.4325 114.666 73.7075C114.479 73.8143 114.292 73.9203 114.1 74.0299C111.846 75.23 109.372 76.0237 106.953 76.828C106.509 77.9022 106.698 79.2475 106.695 80.3963C106.693 80.8362 106.687 81.2768 106.68 81.7174C106.643 86.4922 108.081 90.6705 111.4 94.1833C114.485 97.1551 118.18 98.0719 122.33 98.4619C122.603 98.4876 122.603 98.4876 122.88 98.5139C126.51 98.8328 130.16 98.9538 133.799 99.1239C151.248 99.9446 151.248 99.9446 156.352 105.121C161.84 111.2 162.813 118.182 163.002 126.067C163.026 126.927 163.063 127.783 163.112 128.642C163.125 128.862 163.138 129.084 163.151 129.312C163.239 129.942 163.315 130.369 163.647 130.917C164.139 131.17 164.573 131.353 165.093 131.528C165.378 131.634 165.663 131.74 165.948 131.847C166.088 131.9 166.228 131.953 166.373 132.007C168.19 132.724 169.672 133.826 171.15 135.077C171.278 135.178 171.406 135.277 171.538 135.38C172.697 136.304 173.582 137.448 174.485 138.614C174.679 138.858 174.679 138.858 174.877 139.107C177.692 142.842 179.026 148.036 178.555 152.666C177.728 158.069 174.577 162.7 170.316 166.074C165.748 169.24 160.869 170.552 155.346 169.682C150.28 168.697 145.293 165.569 142.386 161.289C139.516 156.752 138.404 151.606 139.468 146.311C140.949 140.186 144.742 135.894 150.025 132.659C151.098 132.074 152.227 131.745 153.395 131.409C153.559 131.362 153.724 131.314 153.893 131.265C154.296 131.148 154.698 131.033 155.101 130.917C155.111 129.418 155.118 127.918 155.122 126.419C155.124 125.722 155.128 125.026 155.132 124.329C155.137 123.525 155.14 122.721 155.141 121.917C155.143 121.672 155.146 121.426 155.148 121.174C155.148 117.787 154.675 115.479 152.287 113C148.631 109.406 143.832 108.962 138.932 108.757C138.724 108.748 138.516 108.739 138.303 108.73C136.211 108.645 134.12 108.609 132.027 108.577C122.742 108.424 115.128 107.37 106.745 103.248C106.745 103.433 106.746 103.618 106.747 103.808C106.761 109.524 106.713 115.238 106.649 120.954C106.636 122.107 106.623 123.259 106.611 124.412C106.587 126.649 106.562 128.887 106.537 131.125C106.676 131.137 106.814 131.149 106.957 131.162C107.141 131.179 107.326 131.196 107.516 131.214C107.697 131.23 107.879 131.246 108.066 131.263C110.993 131.631 113.469 133.259 115.708 135.077C115.886 135.221 116.064 135.364 116.247 135.511C120.238 138.897 122.483 143.536 122.95 148.719C123.297 153.737 121.876 158.566 118.6 162.437C118.13 162.965 117.651 163.48 117.167 163.994C117.001 164.183 117.001 164.183 116.832 164.376C114.042 167.426 109.41 169.449 105.324 169.799C105.174 169.806 105.024 169.813 104.869 169.819C104.648 169.83 104.427 169.84 104.2 169.852C99.0573 169.981 93.9079 168.306 90.0707 164.826C89.788 164.573 89.788 164.573 89.5004 164.315C85.6994 160.731 83.6904 155.759 83.3544 150.59C83.2867 147.98 83.706 145.341 84.8601 142.983C84.9875 142.716 84.9875 142.716 85.1185 142.443C86.8058 139.14 89.4335 136.274 92.3638 134.037C92.5304 133.904 92.6977 133.771 92.8699 133.634C94.5537 132.358 96.4545 131.812 98.4557 131.214C98.7355 131.13 98.7355 131.13 99.021 131.045C99.1627 131.003 99.3043 130.96 99.4503 130.917C99.4553 127.869 99.4588 124.822 99.461 121.774C99.4617 120.359 99.4638 118.943 99.4659 117.528C99.4681 116.159 99.4695 114.79 99.4702 113.421C99.4702 112.902 99.4709 112.383 99.4723 111.864C99.4802 108.217 99.4617 104.586 99.0331 100.96C98.0955 101.063 97.6641 101.383 96.9877 102.026C96.8048 102.196 96.6218 102.365 96.4338 102.541C96.1227 102.836 95.8123 103.132 95.5041 103.43C89.2 109.289 78.6172 109.257 70.5391 109.419C62.5071 109.472 62.5071 109.472 55.1979 112.441C51.6268 116.171 51.87 121.524 51.7979 126.34C51.7899 126.786 51.7818 127.232 51.7735 127.678C51.7537 128.757 51.7361 129.837 51.7197 130.917C51.8608 130.959 52.0018 131 52.147 131.043C52.3332 131.098 52.5193 131.154 52.711 131.211C52.895 131.266 53.079 131.32 53.2686 131.376C58.3522 132.941 62.4107 136.082 65.0592 140.694C67.596 145.623 68.0277 151.105 66.5191 156.401C64.8725 161.491 61.0169 165.482 56.3255 167.951C52.2408 169.988 47.3141 170.553 42.9168 169.262C37.4702 167.355 32.7926 163.732 30.043 158.585C27.7429 153.713 27.8176 148.199 29.4234 143.141C31.5616 137.414 36.5564 133.947 41.8992 131.483C44.5284 130.292 44.5284 130.292 45.05 130.292C45.0479 130.084 45.0479 130.084 45.0458 129.87C45.0318 128.399 45.0224 126.927 45.0157 125.455C45.0125 124.908 45.0083 124.362 45.0029 123.815C44.9399 117.347 45.3371 111.497 50.0523 106.577C56.501 100.533 65.4405 100.75 73.7469 100.22C74.5614 100.168 75.3758 100.115 76.1902 100.062C76.7641 100.025 77.3379 99.9909 77.9124 99.9567C79.7057 99.8457 81.4784 99.687 83.2547 99.4101C83.4918 99.3738 83.4918 99.3738 83.7338 99.336C88.3471 98.5716 92.4976 96.0617 95.2827 92.2799C95.6507 91.7155 95.9925 91.1446 96.3235 90.5588C96.4153 90.4064 96.5065 90.2541 96.6004 90.0975C98.183 87.2531 98.7255 83.9689 99.2153 80.7942C99.2381 80.6462 99.2616 80.4988 99.2851 80.3465C99.5827 78.493 99.5827 78.493 99.6589 76.6202C99.4289 76.5483 99.4289 76.5483 99.1947 76.475C91.5771 74.0655 85.325 70.5712 81.4891 63.2964C79.8844 60.1235 79.0778 56.8546 78.8158 53.3206C78.8009 53.1305 78.7852 52.9403 78.7703 52.7445C78.5481 46.8875 80.8655 40.8315 84.7839 36.5106C91.0588 29.764 99.4709 26.8212 108.621 28.5647Z" fill="#18181B"/>
<path d="M120.226 0.0061432C122.009 0.00581045 123.791 0.00519871 125.574 0.00433111C147.977 -0.00655771 147.977 -0.00655771 158.519 0.124187C158.687 0.126227 158.857 0.128267 159.031 0.130369C162.402 0.171237 165.772 0.230715 169.141 0.340244C169.389 0.348294 169.638 0.356345 169.893 0.364639C173.503 0.490873 177.051 0.671564 180.529 1.69581C180.678 1.73868 180.826 1.78156 180.979 1.82573C184.469 2.85234 187.807 4.31679 190.743 6.48056C191.062 6.71025 191.062 6.71025 191.386 6.94457C197.826 11.6728 202.699 17.9815 205.188 25.5959C205.317 25.9894 205.454 26.3804 205.591 26.7711C206.114 28.4304 206.267 30.0566 206.383 31.785C206.401 32.04 206.418 32.295 206.436 32.5577C206.626 35.435 206.721 38.3141 206.804 41.196C206.813 41.4834 206.821 41.7708 206.831 42.0582C207.408 61.2125 207.456 80.3821 207.444 99.5439C207.443 100.917 207.442 102.29 207.442 103.663C207.432 130.059 207.432 130.059 207.208 143.158C207.205 143.363 207.202 143.568 207.198 143.779C207.145 146.833 207.088 149.886 207.026 152.94C207.017 153.345 207.009 153.75 207.001 154.155C206.915 158.432 206.799 162.705 206.621 166.978C206.604 167.385 206.588 167.792 206.572 168.199C206.279 175.489 206.279 175.489 205.424 178.094C205.37 178.264 205.316 178.433 205.262 178.608C202.222 187.863 195.717 195.287 187.054 199.714C183.592 201.424 179.966 202.603 176.178 203.344C175.926 203.394 175.926 203.394 175.669 203.445C173.081 203.917 170.433 203.945 167.81 204.013C167.577 204.02 167.577 204.02 167.337 204.026C163.563 204.129 159.787 204.184 156.011 204.227C155.827 204.229 155.643 204.231 155.452 204.233C145.047 204.355 134.641 204.352 124.236 204.347C122.728 204.346 121.221 204.345 119.714 204.345C104.654 204.342 89.5951 204.315 67.1578 204.238C65.6566 204.233 64.1554 204.228 62.6542 204.223C59.2319 204.211 55.8096 204.198 52.3873 204.184C51.3546 204.18 50.3219 204.176 49.2892 204.172C46.739 204.163 44.1891 204.151 41.639 204.128C40.4988 204.118 39.3586 204.11 38.2184 204.107C37.0519 204.104 35.8856 204.095 34.7192 204.082C34.2856 204.078 33.852 204.076 33.4183 204.076C29.4871 204.075 26.4418 203.183 22.9565 201.408C22.6093 201.245 22.2615 201.083 21.9128 200.923C21.131 200.558 20.3763 200.161 19.6217 199.743C19.407 199.627 19.1923 199.511 18.9712 199.391C14.5528 196.92 10.6448 193.526 7.53274 189.55C7.39932 189.381 7.39932 189.381 7.26313 189.209C4.38928 185.557 2.55599 181.529 0.875974 177.219C0.737697 176.864 0.592127 176.513 0.435927 176.165C0.22333 175.571 0.183524 175.125 0.179855 174.495C0.177566 174.272 0.175267 174.049 0.172909 173.819C0.172295 173.451 0.172302 173.451 0.171675 173.076C0.169623 172.814 0.167568 172.552 0.165454 172.283C0.159813 171.55 0.156795 170.818 0.154221 170.086C0.150989 169.287 0.145453 168.487 0.140278 167.687C0.130372 166.089 0.122933 164.492 0.116336 162.894C0.11079 161.558 0.104359 160.222 0.097432 158.886C-0.00966182 138.08 -0.00257364 117.274 0.00230049 96.4674C0.00324631 92.3553 0.00305658 88.2425 0.00210966 84.1304C0.000988977 79.2617 0.000555376 74.3929 0.00119371 69.5238C0.00126007 69.0041 0.00133257 68.4844 0.00139726 67.9648C0.00142941 67.7095 0.0014659 67.4542 0.00149903 67.1913C0.00167633 65.4237 0.00137235 63.6561 0.000875675 61.8885C0.000285773 59.7442 0.0004641 57.5999 0.00156264 55.4556C0.00210105 54.3701 0.00234445 53.2847 0.00163897 52.1993C-0.00090374 47.9115 0.0236365 43.6261 0.122163 39.3392C0.12621 39.1585 0.130256 38.9778 0.134426 38.7916C0.179309 36.8381 0.244175 34.8862 0.338111 32.9344C0.346115 32.7633 0.354124 32.5923 0.362371 32.4161C0.473269 30.2394 0.883656 28.2304 1.57948 26.1657C1.65122 25.9524 1.72295 25.7392 1.79686 25.5194C2.92097 22.3007 4.46377 19.2148 6.4906 16.4661C6.70783 16.1613 6.70783 16.1613 6.92945 15.8502C7.91255 14.4991 8.97667 13.2668 10.1219 12.0536C10.498 11.6474 10.8542 11.2435 11.2047 10.8167C11.8602 10.0359 12.5851 9.41833 13.3687 8.76895C13.5276 8.63449 13.5276 8.63449 13.6895 8.49732C17.3968 5.36721 21.5921 2.93856 26.2002 1.38376C26.3424 1.33313 26.4845 1.2825 26.6309 1.23033C27.6904 0.89758 28.7414 0.80691 29.8457 0.75235C30.0913 0.739552 30.0912 0.739552 30.3418 0.726497C32.2843 0.630267 34.2279 0.585982 36.1723 0.545128C36.569 0.536412 36.9657 0.527684 37.3624 0.518946C41.0016 0.440174 44.6409 0.383582 48.2808 0.343596C48.4611 0.341593 48.6415 0.339589 48.8274 0.337524C52.2231 0.300016 55.619 0.26883 59.0149 0.23958C59.2884 0.237213 59.5619 0.234848 59.8437 0.23241C77.3948 0.0811899 94.9466 0.0179364 120.226 0.0061432ZM41.0737 8.86162C40.8753 8.86568 40.677 8.86967 40.4726 8.87387C38.3227 8.91871 36.1746 8.98398 34.0263 9.08008C33.8387 9.0884 33.651 9.0968 33.4576 9.10542C26.2584 9.44424 20.0141 12.8436 15.1893 18.133C13.116 20.5041 11.6204 23.1982 10.3259 26.0571C10.0339 26.6597 10.0339 26.6598 9.71394 27.1582C8.34576 29.4979 8.60276 32.1239 8.61494 34.7492C8.617 35.4925 8.6118 36.2356 8.60753 36.9789C8.60113 38.2797 8.59927 39.5805 8.60063 40.8814C8.60248 42.816 8.59728 44.7506 8.59073 46.6852C8.5787 50.3424 8.57514 53.9996 8.57443 57.6567C8.57386 60.4824 8.5713 63.308 8.56731 66.1336C8.56617 66.9477 8.56503 67.7619 8.56396 68.576C8.56368 68.7784 8.56339 68.9809 8.56311 69.1894C8.55542 74.8819 8.55051 80.5742 8.55101 86.2666C8.55108 86.4815 8.55108 86.6958 8.55108 86.9171C8.55122 88.0041 8.55129 89.0917 8.55143 90.1786C8.55143 90.395 8.5515 90.6107 8.5515 90.8328C8.55158 91.2698 8.55165 91.7062 8.55165 92.1432C8.55243 98.9324 8.54303 105.722 8.52595 112.511C8.50672 120.144 8.49597 127.778 8.49711 135.411C8.49726 136.226 8.49733 137.041 8.49733 137.856C8.49733 138.056 8.49733 138.257 8.4974 138.464C8.4974 141.685 8.48942 144.906 8.47867 148.126C8.468 151.368 8.46686 154.608 8.47504 157.85C8.47967 159.772 8.47746 161.694 8.46508 163.616C8.45753 164.904 8.45931 166.192 8.46821 167.48C8.47298 168.212 8.47419 168.942 8.46387 169.674C8.40492 174.892 10.0678 179.121 13.1604 183.308C13.3623 183.585 13.3623 183.585 13.5682 183.866C17.6536 189.121 23.3702 193.805 30.1213 194.789C32.7247 195.115 35.3596 195.202 37.9799 195.28C38.1227 195.284 38.2653 195.288 38.4124 195.293C41.5097 195.386 44.6065 195.416 47.7051 195.433C48.3074 195.436 48.9098 195.44 49.5121 195.444C51.1681 195.454 52.8241 195.463 54.4801 195.472C55.5543 195.477 56.6285 195.484 57.7027 195.49C60.8718 195.507 64.041 195.524 67.2101 195.541C67.5268 195.542 67.5268 195.542 67.85 195.544C68.2822 195.546 68.7145 195.549 69.1467 195.551C69.4717 195.552 69.4717 195.552 69.8034 195.554C70.0218 195.555 70.2403 195.556 70.4653 195.557C73.7861 195.574 77.1072 195.593 80.4283 195.612C89.3359 195.664 98.2443 195.715 107.152 195.743C107.36 195.744 107.36 195.744 107.571 195.744C110.672 195.754 113.772 195.763 116.872 195.771C118.151 195.774 119.43 195.777 120.709 195.781C120.921 195.781 120.921 195.781 121.136 195.782C125.774 195.794 130.412 195.818 135.05 195.848C140.041 195.879 145.032 195.898 150.023 195.904C152.974 195.908 155.925 195.921 158.875 195.948C160.882 195.965 162.887 195.969 164.893 195.964C166.042 195.961 167.191 195.964 168.341 195.982C174.246 196.068 178.552 195.275 183.656 192.254C184.028 192.044 184.4 191.834 184.772 191.625C186.582 190.601 188.178 189.293 189.7 187.885C189.814 187.781 189.927 187.677 190.043 187.571C195.597 182.417 197.767 176.607 198.054 169.142C198.093 168.003 198.122 166.864 198.148 165.725C198.152 165.535 198.157 165.347 198.162 165.152C198.283 159.783 198.295 154.411 198.311 149.04C198.315 147.948 198.319 146.856 198.323 145.764C198.368 133.658 198.394 121.551 198.414 109.444C198.416 107.698 198.419 105.952 198.422 104.205C198.422 104.013 198.423 103.82 198.423 103.621C198.434 97.3558 198.454 91.0912 198.48 84.8266C198.507 78.362 198.524 71.8981 198.528 65.4341C198.529 64.52 198.53 63.6059 198.531 62.6918C198.531 62.512 198.531 62.3322 198.531 62.1468C198.535 59.2665 198.547 56.3862 198.564 53.5059C198.58 50.6094 198.586 47.7132 198.581 44.8167C198.579 43.2509 198.581 41.6856 198.597 40.1199C198.825 31.2607 198.825 31.2607 195.328 23.3312C195.125 23.0195 194.924 22.707 194.724 22.3932C194.275 21.6953 193.775 21.0573 193.244 20.4188C193.053 20.1834 192.863 19.948 192.672 19.7126C188.463 14.5796 182.916 10.1196 176.152 9.39306C169.919 8.81692 163.583 8.92569 157.33 8.86782C156.65 8.86155 155.97 8.855 155.29 8.84845C144.895 8.7493 134.501 8.73798 124.106 8.74076C122.26 8.74126 120.413 8.74133 118.566 8.74111C118.163 8.74104 118.163 8.74104 117.752 8.74097C117.206 8.7409 116.66 8.74083 116.114 8.74076C111.213 8.74019 106.312 8.74076 101.411 8.7419C96.9713 8.74289 92.5325 8.74282 88.0936 8.74183C83.044 8.74069 77.995 8.74026 72.9453 8.7409C72.4049 8.74097 71.8653 8.74104 71.3249 8.74111C71.0594 8.74111 70.7939 8.74119 70.5203 8.74119C68.6767 8.74133 66.8331 8.74104 64.9895 8.74054C62.7423 8.73998 60.495 8.74019 58.2477 8.74126C57.1083 8.74175 55.9689 8.74204 54.8295 8.74133C50.2431 8.73877 45.6591 8.76574 41.0737 8.86162Z" fill="#18181B"/>
</svg>
