<svg width="1052" height="248" viewBox="0 0 1052 248" fill="none" xmlns="http://www.w3.org/2000/svg">
<path d="M108.621 53.5647C108.865 53.6108 109.11 53.657 109.361 53.7044C115.182 55.0275 120.816 59.1163 124.048 64.1012C125.597 66.7122 126.642 69.3397 127.38 72.2876C127.42 72.451 127.462 72.6143 127.504 72.7826C127.823 74.1923 127.869 75.5656 127.862 77.0074C127.86 77.2463 127.86 77.4851 127.859 77.7313C127.834 79.53 127.67 81.1613 127.171 82.8973C127.105 83.1422 127.039 83.387 126.971 83.6392C125.044 90.0697 120.479 95.4325 114.666 98.7075C114.479 98.8143 114.292 98.9203 114.1 99.0299C111.846 100.23 109.372 101.024 106.953 101.828C106.509 102.902 106.698 104.247 106.695 105.396C106.693 105.836 106.687 106.277 106.68 106.717C106.643 111.492 108.081 115.671 111.4 119.183C114.485 122.155 118.18 123.072 122.33 123.462C122.603 123.488 122.603 123.488 122.88 123.514C126.51 123.833 130.16 123.954 133.799 124.124C151.248 124.945 151.248 124.945 156.352 130.121C161.84 136.2 162.813 143.182 163.002 151.067C163.026 151.927 163.063 152.783 163.112 153.642C163.125 153.862 163.138 154.084 163.151 154.312C163.239 154.942 163.315 155.369 163.647 155.917C164.139 156.17 164.573 156.353 165.093 156.528C165.378 156.634 165.663 156.74 165.948 156.847C166.088 156.9 166.228 156.953 166.373 157.007C168.19 157.724 169.672 158.826 171.15 160.077C171.278 160.178 171.406 160.277 171.538 160.38C172.697 161.304 173.582 162.448 174.485 163.614C174.679 163.858 174.679 163.858 174.877 164.107C177.692 167.842 179.026 173.036 178.555 177.666C177.728 183.069 174.577 187.7 170.316 191.074C165.748 194.24 160.869 195.552 155.346 194.682C150.28 193.697 145.293 190.569 142.386 186.289C139.516 181.752 138.404 176.606 139.468 171.311C140.949 165.186 144.742 160.894 150.025 157.659C151.098 157.074 152.227 156.745 153.395 156.409C153.559 156.362 153.724 156.314 153.893 156.265C154.296 156.148 154.698 156.033 155.101 155.917C155.111 154.418 155.118 152.918 155.122 151.419C155.124 150.722 155.128 150.026 155.132 149.329C155.137 148.525 155.14 147.721 155.141 146.917C155.143 146.672 155.146 146.426 155.148 146.174C155.148 142.787 154.675 140.479 152.287 138C148.631 134.406 143.832 133.962 138.932 133.757C138.724 133.748 138.516 133.739 138.303 133.73C136.211 133.645 134.12 133.609 132.027 133.577C122.742 133.424 115.128 132.37 106.745 128.248C106.745 128.433 106.746 128.618 106.747 128.808C106.761 134.524 106.713 140.238 106.649 145.954C106.636 147.107 106.623 148.259 106.611 149.412C106.587 151.649 106.562 153.887 106.537 156.125C106.676 156.137 106.814 156.149 106.957 156.162C107.141 156.179 107.326 156.196 107.516 156.214C107.697 156.23 107.879 156.246 108.066 156.263C110.993 156.631 113.469 158.259 115.708 160.077C115.886 160.221 116.064 160.364 116.247 160.511C120.238 163.897 122.483 168.536 122.95 173.719C123.297 178.737 121.876 183.566 118.6 187.437C118.13 187.965 117.651 188.48 117.167 188.994C117.001 189.183 117.001 189.183 116.832 189.376C114.042 192.426 109.41 194.449 105.324 194.799C105.174 194.806 105.024 194.813 104.869 194.819C104.648 194.83 104.427 194.84 104.2 194.852C99.0573 194.981 93.9079 193.306 90.0707 189.826C89.788 189.573 89.788 189.573 89.5004 189.315C85.6994 185.731 83.6904 180.759 83.3544 175.59C83.2867 172.98 83.706 170.341 84.8601 167.983C84.9875 167.716 84.9875 167.716 85.1185 167.443C86.8058 164.14 89.4335 161.274 92.3638 159.037C92.5304 158.904 92.6977 158.771 92.8699 158.634C94.5537 157.358 96.4545 156.812 98.4557 156.214C98.7355 156.13 98.7355 156.13 99.021 156.045C99.1627 156.003 99.3043 155.96 99.4503 155.917C99.4553 152.869 99.4588 149.822 99.461 146.774C99.4617 145.359 99.4638 143.943 99.4659 142.528C99.4681 141.159 99.4695 139.79 99.4702 138.421C99.4702 137.902 99.4709 137.383 99.4723 136.864C99.4802 133.217 99.4617 129.586 99.0331 125.96C98.0955 126.063 97.6641 126.383 96.9877 127.026C96.8048 127.196 96.6218 127.365 96.4338 127.541C96.1227 127.836 95.8123 128.132 95.5041 128.43C89.2 134.289 78.6172 134.257 70.5391 134.419C62.5071 134.472 62.5071 134.472 55.1979 137.441C51.6268 141.171 51.87 146.524 51.7979 151.34C51.7899 151.786 51.7818 152.232 51.7735 152.678C51.7537 153.757 51.7361 154.837 51.7197 155.917C51.8608 155.959 52.0018 156 52.147 156.043C52.3332 156.098 52.5193 156.154 52.711 156.211C52.895 156.266 53.079 156.32 53.2686 156.376C58.3522 157.941 62.4107 161.082 65.0592 165.694C67.596 170.623 68.0277 176.105 66.5191 181.401C64.8725 186.491 61.0169 190.482 56.3255 192.951C52.2408 194.988 47.3141 195.553 42.9168 194.262C37.4702 192.355 32.7926 188.732 30.043 183.585C27.7429 178.713 27.8176 173.199 29.4234 168.141C31.5616 162.414 36.5564 158.947 41.8992 156.483C44.5284 155.292 44.5284 155.292 45.05 155.292C45.0479 155.084 45.0479 155.084 45.0458 154.87C45.0318 153.399 45.0224 151.927 45.0157 150.455C45.0125 149.908 45.0083 149.362 45.0029 148.815C44.9399 142.347 45.3371 136.497 50.0523 131.577C56.501 125.533 65.4405 125.75 73.7469 125.22C74.5614 125.168 75.3758 125.115 76.1902 125.062C76.7641 125.025 77.3379 124.991 77.9124 124.957C79.7057 124.846 81.4784 124.687 83.2547 124.41C83.4918 124.374 83.4918 124.374 83.7338 124.336C88.3471 123.572 92.4976 121.062 95.2827 117.28C95.6507 116.715 95.9925 116.145 96.3235 115.559C96.4153 115.406 96.5065 115.254 96.6004 115.098C98.183 112.253 98.7255 108.969 99.2153 105.794C99.2381 105.646 99.2616 105.499 99.2851 105.346C99.5827 103.493 99.5827 103.493 99.6589 101.62C99.4289 101.548 99.4289 101.548 99.1947 101.475C91.5771 99.0655 85.325 95.5712 81.4891 88.2964C79.8844 85.1235 79.0778 81.8546 78.8158 78.3206C78.8009 78.1305 78.7852 77.9403 78.7703 77.7445C78.5481 71.8875 80.8655 65.8315 84.7839 61.5106C91.0588 54.764 99.4709 51.8212 108.621 53.5647Z" fill="#18181B"/>
<path d="M120.226 25.0061C122.009 25.0058 123.791 25.0052 125.574 25.0043C147.977 24.9934 147.977 24.9934 158.519 25.1242C158.687 25.1262 158.857 25.1283 159.031 25.1304C162.402 25.1712 165.772 25.2307 169.141 25.3402C169.389 25.3483 169.638 25.3563 169.893 25.3646C173.503 25.4909 177.051 25.6716 180.529 26.6958C180.678 26.7387 180.826 26.7816 180.979 26.8257C184.469 27.8523 187.807 29.3168 190.743 31.4806C191.062 31.7102 191.062 31.7102 191.386 31.9446C197.826 36.6728 202.699 42.9815 205.188 50.5959C205.317 50.9894 205.454 51.3804 205.591 51.7711C206.114 53.4304 206.267 55.0566 206.383 56.785C206.401 57.04 206.418 57.295 206.436 57.5577C206.626 60.435 206.721 63.3141 206.804 66.196C206.813 66.4834 206.821 66.7708 206.831 67.0582C207.408 86.2125 207.456 105.382 207.444 124.544C207.443 125.917 207.442 127.29 207.442 128.663C207.432 155.059 207.432 155.059 207.208 168.158C207.205 168.363 207.202 168.568 207.198 168.779C207.145 171.833 207.088 174.886 207.026 177.94C207.017 178.345 207.009 178.75 207.001 179.155C206.915 183.432 206.799 187.705 206.621 191.978C206.604 192.385 206.588 192.792 206.572 193.199C206.279 200.489 206.279 200.489 205.424 203.094C205.37 203.264 205.316 203.433 205.262 203.608C202.222 212.863 195.717 220.287 187.054 224.714C183.592 226.424 179.966 227.603 176.178 228.344C175.926 228.394 175.926 228.394 175.669 228.445C173.081 228.917 170.433 228.945 167.81 229.013C167.577 229.02 167.577 229.02 167.337 229.026C163.563 229.129 159.787 229.184 156.011 229.227C155.827 229.229 155.643 229.231 155.452 229.233C145.047 229.355 134.641 229.352 124.236 229.347C122.728 229.346 121.221 229.345 119.714 229.345C104.654 229.342 89.5951 229.315 67.1578 229.238C65.6566 229.233 64.1554 229.228 62.6542 229.223C59.2319 229.211 55.8096 229.198 52.3873 229.184C51.3546 229.18 50.3219 229.176 49.2892 229.172C46.739 229.163 44.1891 229.151 41.639 229.128C40.4988 229.118 39.3586 229.11 38.2184 229.107C37.0519 229.104 35.8856 229.095 34.7192 229.082C34.2856 229.078 33.852 229.076 33.4183 229.076C29.4871 229.075 26.4418 228.183 22.9565 226.408C22.6093 226.245 22.2615 226.083 21.9128 225.923C21.131 225.558 20.3763 225.161 19.6217 224.743C19.407 224.627 19.1923 224.511 18.9712 224.391C14.5528 221.92 10.6448 218.526 7.53274 214.55C7.39932 214.381 7.39932 214.381 7.26313 214.209C4.38928 210.557 2.55599 206.529 0.875974 202.219C0.737697 201.864 0.592127 201.513 0.435927 201.165C0.22333 200.571 0.183524 200.125 0.179855 199.495C0.177566 199.272 0.175267 199.049 0.172909 198.819C0.172295 198.451 0.172302 198.451 0.171675 198.076C0.169623 197.814 0.167568 197.552 0.165454 197.283C0.159813 196.55 0.156795 195.818 0.154221 195.086C0.150989 194.287 0.145453 193.487 0.140278 192.687C0.130372 191.089 0.122933 189.492 0.116336 187.894C0.11079 186.558 0.104359 185.222 0.097432 183.886C-0.00966182 163.08 -0.00257364 142.274 0.00230049 121.467C0.00324631 117.355 0.00305658 113.243 0.00210966 109.13C0.000988977 104.262 0.000555376 99.3929 0.00119371 94.5238C0.00126007 94.0041 0.00133257 93.4844 0.00139726 92.9648C0.00142941 92.7095 0.0014659 92.4542 0.00149903 92.1913C0.00167633 90.4237 0.00137235 88.6561 0.000875675 86.8885C0.000285773 84.7442 0.0004641 82.5999 0.00156264 80.4556C0.00210105 79.3701 0.00234445 78.2847 0.00163897 77.1993C-0.00090374 72.9115 0.0236365 68.6261 0.122163 64.3392C0.12621 64.1585 0.130256 63.9778 0.134426 63.7916C0.179309 61.8381 0.244175 59.8862 0.338111 57.9344C0.346115 57.7633 0.354124 57.5923 0.362371 57.4161C0.473269 55.2394 0.883656 53.2304 1.57948 51.1657C1.65122 50.9524 1.72295 50.7392 1.79686 50.5194C2.92097 47.3007 4.46377 44.2148 6.4906 41.4661C6.70783 41.1613 6.70783 41.1613 6.92945 40.8502C7.91255 39.4991 8.97667 38.2668 10.1219 37.0536C10.498 36.6474 10.8542 36.2435 11.2047 35.8167C11.8602 35.0359 12.5851 34.4183 13.3687 33.7689C13.5276 33.6345 13.5276 33.6345 13.6895 33.4973C17.3968 30.3672 21.5921 27.9386 26.2002 26.3838C26.3424 26.3331 26.4845 26.2825 26.6309 26.2303C27.6904 25.8976 28.7414 25.8069 29.8457 25.7523C30.0913 25.7396 30.0912 25.7396 30.3418 25.7265C32.2843 25.6303 34.2279 25.586 36.1723 25.5451C36.569 25.5364 36.9657 25.5277 37.3624 25.5189C41.0016 25.4402 44.6409 25.3836 48.2808 25.3436C48.4611 25.3416 48.6415 25.3396 48.8274 25.3375C52.2231 25.3 55.619 25.2688 59.0149 25.2396C59.2884 25.2372 59.5619 25.2348 59.8437 25.2324C77.3948 25.0812 94.9466 25.0179 120.226 25.0061ZM41.0737 33.8616C40.8753 33.8657 40.677 33.8697 40.4726 33.8739C38.3227 33.9187 36.1746 33.984 34.0263 34.0801C33.8387 34.0884 33.651 34.0968 33.4576 34.1054C26.2584 34.4442 20.0141 37.8436 15.1893 43.133C13.116 45.5041 11.6204 48.1982 10.3259 51.0571C10.0339 51.6597 10.0339 51.6598 9.71394 52.1582C8.34576 54.4979 8.60276 57.1239 8.61494 59.7492C8.617 60.4925 8.6118 61.2356 8.60753 61.9789C8.60113 63.2797 8.59927 64.5805 8.60063 65.8814C8.60248 67.816 8.59728 69.7506 8.59073 71.6852C8.5787 75.3424 8.57514 78.9996 8.57443 82.6567C8.57386 85.4824 8.5713 88.308 8.56731 91.1336C8.56617 91.9477 8.56503 92.7619 8.56396 93.576C8.56368 93.7784 8.56339 93.9809 8.56311 94.1894C8.55542 99.8819 8.55051 105.574 8.55101 111.267C8.55108 111.482 8.55108 111.696 8.55108 111.917C8.55122 113.004 8.55129 114.092 8.55143 115.179C8.55143 115.395 8.5515 115.611 8.5515 115.833C8.55158 116.27 8.55165 116.706 8.55165 117.143C8.55243 123.932 8.54303 130.722 8.52595 137.511C8.50672 145.144 8.49597 152.778 8.49711 160.411C8.49726 161.226 8.49733 162.041 8.49733 162.856C8.49733 163.056 8.49733 163.257 8.4974 163.464C8.4974 166.685 8.48942 169.906 8.47867 173.126C8.468 176.368 8.46686 179.608 8.47504 182.85C8.47967 184.772 8.47746 186.694 8.46508 188.616C8.45753 189.904 8.45931 191.192 8.46821 192.48C8.47298 193.212 8.47419 193.942 8.46387 194.674C8.40492 199.892 10.0678 204.121 13.1604 208.308C13.3623 208.585 13.3623 208.585 13.5682 208.866C17.6536 214.121 23.3702 218.805 30.1213 219.789C32.7247 220.115 35.3596 220.202 37.9799 220.28C38.1227 220.284 38.2653 220.288 38.4124 220.293C41.5097 220.386 44.6065 220.416 47.7051 220.433C48.3074 220.436 48.9098 220.44 49.5121 220.444C51.1681 220.454 52.8241 220.463 54.4801 220.472C55.5543 220.477 56.6285 220.484 57.7027 220.49C60.8718 220.507 64.041 220.524 67.2101 220.541C67.5268 220.542 67.5268 220.542 67.85 220.544C68.2822 220.546 68.7145 220.549 69.1467 220.551C69.4717 220.552 69.4717 220.552 69.8034 220.554C70.0218 220.555 70.2403 220.556 70.4653 220.557C73.7861 220.574 77.1072 220.593 80.4283 220.612C89.3359 220.664 98.2443 220.715 107.152 220.743C107.36 220.744 107.36 220.744 107.571 220.744C110.672 220.754 113.772 220.763 116.872 220.771C118.151 220.774 119.43 220.777 120.709 220.781C120.921 220.781 120.921 220.781 121.136 220.782C125.774 220.794 130.412 220.818 135.05 220.848C140.041 220.879 145.032 220.898 150.023 220.904C152.974 220.908 155.925 220.921 158.875 220.948C160.882 220.965 162.887 220.969 164.893 220.964C166.042 220.961 167.191 220.964 168.341 220.982C174.246 221.068 178.552 220.275 183.656 217.254C184.028 217.044 184.4 216.834 184.772 216.625C186.582 215.601 188.178 214.293 189.7 212.885C189.814 212.781 189.927 212.677 190.043 212.571C195.597 207.417 197.767 201.607 198.054 194.142C198.093 193.003 198.122 191.864 198.148 190.725C198.152 190.535 198.157 190.347 198.162 190.152C198.283 184.783 198.295 179.411 198.311 174.04C198.315 172.948 198.319 171.856 198.323 170.764C198.368 158.658 198.394 146.551 198.414 134.444C198.416 132.698 198.419 130.952 198.422 129.205C198.422 129.013 198.423 128.82 198.423 128.621C198.434 122.356 198.454 116.091 198.48 109.827C198.507 103.362 198.524 96.8981 198.528 90.4341C198.529 89.52 198.53 88.6059 198.531 87.6918C198.531 87.512 198.531 87.3322 198.531 87.1468C198.535 84.2665 198.547 81.3862 198.564 78.5059C198.58 75.6094 198.586 72.7132 198.581 69.8167C198.579 68.2509 198.581 66.6856 198.597 65.1199C198.825 56.2607 198.825 56.2607 195.328 48.3312C195.125 48.0195 194.924 47.707 194.724 47.3932C194.275 46.6953 193.775 46.0573 193.244 45.4188C193.053 45.1834 192.863 44.948 192.672 44.7126C188.463 39.5796 182.916 35.1196 176.152 34.3931C169.919 33.8169 163.583 33.9257 157.33 33.8678C156.65 33.8616 155.97 33.855 155.29 33.8485C144.895 33.7493 134.501 33.738 124.106 33.7408C122.26 33.7413 120.413 33.7413 118.566 33.7411C118.163 33.741 118.163 33.741 117.752 33.741C117.206 33.7409 116.66 33.7408 116.114 33.7408C111.213 33.7402 106.312 33.7408 101.411 33.7419C96.9713 33.7429 92.5325 33.7428 88.0936 33.7418C83.044 33.7407 77.995 33.7403 72.9453 33.7409C72.4049 33.741 71.8653 33.741 71.3249 33.7411C71.0594 33.7411 70.7939 33.7412 70.5203 33.7412C68.6767 33.7413 66.8331 33.741 64.9895 33.7405C62.7423 33.74 60.495 33.7402 58.2477 33.7413C57.1083 33.7418 55.9689 33.742 54.8295 33.7413C50.2431 33.7388 45.6591 33.7657 41.0737 33.8616Z" fill="#18181B"/>
<path d="M329.694 185.638C323.021 185.638 316.651 185.092 310.584 184C304.639 182.787 299.118 181.088 294.022 178.904C289.047 176.599 284.619 173.869 280.736 170.714L286.742 155.79C290.867 158.823 295.114 161.371 299.482 163.434C303.85 165.497 308.521 167.074 313.496 168.166C318.471 169.137 323.87 169.622 329.694 169.622C340.007 169.622 347.591 167.802 352.444 164.162C357.419 160.401 359.906 155.547 359.906 149.602C359.906 146.326 359.117 143.535 357.54 141.23C356.084 138.925 353.657 136.983 350.26 135.406C346.863 133.707 342.434 132.312 336.974 131.22L317.5 127.216C305.973 124.789 297.359 120.785 291.656 115.204C286.075 109.623 283.284 102.1 283.284 92.636C283.284 84.8707 285.347 78.076 289.472 72.252C293.597 66.428 299.239 61.9387 306.398 58.784C313.678 55.6293 322.05 54.052 331.514 54.052C337.338 54.052 342.859 54.6587 348.076 55.872C353.415 56.964 358.329 58.6627 362.818 60.968C367.429 63.2733 371.433 66.064 374.83 69.34L368.642 83.718C363.425 79.1073 357.783 75.71 351.716 73.526C345.649 71.2207 338.855 70.068 331.332 70.068C325.387 70.068 320.169 70.978 315.68 72.798C311.312 74.618 307.915 77.166 305.488 80.442C303.183 83.718 302.03 87.6007 302.03 92.09C302.03 97.186 303.668 101.251 306.944 104.284C310.22 107.317 315.68 109.623 323.324 111.2L342.616 115.204C354.749 117.752 363.789 121.695 369.734 127.034C375.679 132.373 378.652 139.471 378.652 148.328C378.652 155.729 376.65 162.281 372.646 167.984C368.642 173.565 363 177.933 355.72 181.088C348.44 184.121 339.765 185.638 329.694 185.638ZM433.083 185.638C424.104 185.638 416.339 183.757 409.787 179.996C403.356 176.235 398.321 170.896 394.681 163.98C391.041 157.064 389.221 148.935 389.221 139.592C389.221 130.128 391.041 121.999 394.681 115.204C398.321 108.288 403.356 102.949 409.787 99.188C416.339 95.4267 424.104 93.546 433.083 93.546C441.94 93.546 449.584 95.4267 456.015 99.188C462.567 102.949 467.663 108.288 471.303 115.204C474.943 122.12 476.763 130.249 476.763 139.592C476.763 148.935 474.943 157.064 471.303 163.98C467.663 170.896 462.567 176.235 456.015 179.996C449.584 183.757 441.94 185.638 433.083 185.638ZM432.901 171.442C440.545 171.442 446.672 168.712 451.283 163.252C455.893 157.792 458.199 149.905 458.199 139.592C458.199 129.157 455.893 121.271 451.283 115.932C446.672 110.593 440.545 107.924 432.901 107.924C425.378 107.924 419.311 110.593 414.701 115.932C410.09 121.271 407.785 129.157 407.785 139.592C407.785 149.905 410.09 157.792 414.701 163.252C419.311 168.712 425.378 171.442 432.901 171.442ZM493.767 216.76V95.184H511.785V115.204H509.783C511.724 108.652 515.546 103.435 521.249 99.552C526.952 95.548 533.686 93.546 541.451 93.546C549.338 93.546 556.193 95.4267 562.017 99.188C567.962 102.949 572.512 108.227 575.667 115.022C578.943 121.817 580.581 130.007 580.581 139.592C580.581 148.935 578.943 157.125 575.667 164.162C572.512 171.078 568.023 176.417 562.199 180.178C556.375 183.818 549.459 185.638 541.451 185.638C533.807 185.638 527.134 183.697 521.431 179.814C515.728 175.931 511.906 170.775 509.965 164.344H512.149V216.76H493.767ZM536.901 171.442C544.545 171.442 550.612 168.712 555.101 163.252C559.712 157.792 562.017 149.905 562.017 139.592C562.017 129.157 559.712 121.271 555.101 115.932C550.612 110.593 544.545 107.924 536.901 107.924C529.378 107.924 523.312 110.593 518.701 115.932C514.09 121.271 511.785 129.157 511.785 139.592C511.785 149.905 514.09 157.792 518.701 163.252C523.312 168.712 529.378 171.442 536.901 171.442ZM597.656 184V55.69H616.038V114.112H613.49C616.16 107.317 620.346 102.221 626.048 98.824C631.751 95.3053 638.303 93.546 645.704 93.546C652.742 93.546 658.566 94.8807 663.176 97.55C667.908 100.098 671.427 104.041 673.732 109.38C676.038 114.597 677.19 121.21 677.19 129.218V184H658.808V130.31C658.808 125.214 658.141 121.089 656.806 117.934C655.472 114.658 653.47 112.231 650.8 110.654C648.131 109.077 644.673 108.288 640.426 108.288C635.573 108.288 631.266 109.319 627.504 111.382C623.864 113.445 621.013 116.417 618.95 120.3C617.009 124.183 616.038 128.672 616.038 133.768V184H597.656ZM697.242 74.618V55.508H718.718V74.618H697.242ZM698.88 184V95.184H717.262V184H698.88ZM770.617 185.638C765.885 185.638 761.275 185.213 756.785 184.364C752.296 183.515 748.171 182.301 744.409 180.724C740.648 179.147 737.311 177.205 734.399 174.9L739.677 162.524C742.711 164.587 745.926 166.407 749.323 167.984C752.721 169.44 756.239 170.532 759.879 171.26C763.641 171.988 767.281 172.352 770.799 172.352C777.23 172.352 782.083 171.199 785.359 168.894C788.635 166.589 790.273 163.495 790.273 159.612C790.273 156.457 789.181 154.031 786.997 152.332C784.813 150.512 781.537 149.117 777.169 148.146L759.879 144.688C752.357 143.111 746.654 140.32 742.771 136.316C738.889 132.312 736.947 127.216 736.947 121.028C736.947 115.447 738.464 110.593 741.497 106.468C744.531 102.343 748.777 99.188 754.237 97.004C759.697 94.6987 766.007 93.546 773.165 93.546C777.291 93.546 781.295 93.9707 785.177 94.82C789.06 95.6693 792.7 96.8827 796.097 98.46C799.616 100.037 802.589 102.039 805.015 104.466L799.737 116.842C797.432 114.779 794.763 113.02 791.729 111.564C788.817 110.108 785.784 109.016 782.629 108.288C779.475 107.439 776.32 107.014 773.165 107.014C766.735 107.014 761.881 108.227 758.605 110.654C755.451 112.959 753.873 116.114 753.873 120.118C753.873 123.151 754.844 125.639 756.785 127.58C758.727 129.521 761.76 130.917 765.885 131.766L783.175 135.224C791.062 136.801 797.007 139.471 801.011 143.232C805.137 146.993 807.199 152.089 807.199 158.52C807.199 164.101 805.683 168.955 802.649 173.08C799.616 177.205 795.309 180.36 789.727 182.544C784.267 184.607 777.897 185.638 770.617 185.638ZM860.979 185.638C849.938 185.638 841.626 182.787 836.045 177.084C830.585 171.381 827.855 163.131 827.855 152.332V109.38H810.565V95.184H827.855V68.43H846.237V95.184H873.719V109.38H846.237V150.876C846.237 157.307 847.572 162.16 850.241 165.436C853.032 168.712 857.521 170.35 863.709 170.35C865.529 170.35 867.349 170.107 869.169 169.622C871.11 169.137 872.991 168.651 874.811 168.166L877.723 181.998C875.903 183.09 873.355 183.939 870.079 184.546C866.924 185.274 863.891 185.638 860.979 185.638ZM875.036 184L932.184 55.69H947.836L1005.17 184H985.874L970.222 147.6L978.776 152.696H901.244L909.616 147.6L894.146 184H875.036ZM939.828 76.62L912.346 141.776L907.796 137.408H972.042L967.856 141.776L940.192 76.62H939.828ZM1018.33 184V55.69H1037.26V184H1018.33Z" fill="#18181B"/>
</svg>
