<svg width="135" height="35" viewBox="0 0 135 35" fill="none" xmlns="http://www.w3.org/2000/svg">
<path d="M30.576 26.24C29.312 26.24 28.168 25.984 27.144 25.472C26.136 24.96 25.312 24.224 24.672 23.264L26.664 21.344C27.192 21.968 27.832 22.48 28.584 22.88C29.336 23.28 30.04 23.48 30.696 23.48C31.432 23.48 32.024 23.312 32.472 22.976C32.92 22.64 33.144 22.2 33.144 21.656C33.144 21.256 33.072 20.928 32.928 20.672C32.784 20.416 32.512 20.16 32.112 19.904C31.712 19.632 31.056 19.272 30.144 18.824C28.944 18.232 28 17.68 27.312 17.168C26.624 16.656 26.112 16.104 25.776 15.512C25.456 14.904 25.296 14.2 25.296 13.4C25.296 12.52 25.528 11.744 25.992 11.072C26.456 10.4 27.112 9.88 27.96 9.512C28.808 9.144 29.784 8.96 30.888 8.96C32.104 8.96 33.176 9.192 34.104 9.656C35.048 10.12 35.736 10.76 36.168 11.576L33.984 13.208C33.184 12.216 32.2 11.72 31.032 11.72C30.296 11.72 29.728 11.864 29.328 12.152C28.928 12.44 28.728 12.848 28.728 13.376C28.728 13.696 28.824 13.984 29.016 14.24C29.224 14.496 29.592 14.776 30.12 15.08C30.648 15.384 31.44 15.784 32.496 16.28C33.52 16.76 34.32 17.24 34.896 17.72C35.488 18.2 35.912 18.736 36.168 19.328C36.424 19.92 36.552 20.624 36.552 21.44C36.552 22.4 36.304 23.248 35.808 23.984C35.328 24.704 34.632 25.264 33.72 25.664C32.824 26.048 31.776 26.24 30.576 26.24ZM44.1548 26.24C42.2188 26.24 40.7068 25.688 39.6188 24.584C38.5308 23.48 37.9868 21.952 37.9868 20C37.9868 18.048 38.5308 16.52 39.6188 15.416C40.7068 14.312 42.2188 13.76 44.1548 13.76C46.0908 13.76 47.6028 14.312 48.6908 15.416C49.7948 16.52 50.3468 18.048 50.3468 20C50.3468 21.952 49.7948 23.48 48.6908 24.584C47.6028 25.688 46.0908 26.24 44.1548 26.24ZM44.1548 23.96C45.1308 23.96 45.8988 23.608 46.4588 22.904C47.0188 22.2 47.2988 21.232 47.2988 20C47.2988 18.768 47.0188 17.8 46.4588 17.096C45.8988 16.392 45.1308 16.04 44.1548 16.04C43.1788 16.04 42.4108 16.392 41.8508 17.096C41.3068 17.8 41.0348 18.768 41.0348 20C41.0348 21.232 41.3068 22.2 41.8508 22.904C42.4108 23.608 43.1788 23.96 44.1548 23.96ZM52.3892 17.192C52.3892 15.896 52.3572 14.832 52.2932 14H55.1732C55.2212 14.48 55.2452 15.008 55.2452 15.584H55.2932C55.6932 15.008 56.2132 14.56 56.8532 14.24C57.4932 13.92 58.2052 13.76 58.9892 13.76C60.5092 13.76 61.7092 14.32 62.5892 15.44C63.4692 16.56 63.9092 18.088 63.9092 20.024C63.9092 21.96 63.4612 23.48 62.5652 24.584C61.6852 25.688 60.4612 26.24 58.8932 26.24C58.1252 26.24 57.4452 26.112 56.8532 25.856C56.2612 25.6 55.8212 25.24 55.5332 24.776H55.4612V31.808H52.3892V17.192ZM58.2212 23.96C59.0692 23.96 59.7172 23.616 60.1652 22.928C60.6132 22.224 60.8372 21.224 60.8372 19.928C60.8372 17.384 59.9812 16.112 58.2692 16.112C57.4372 16.112 56.7572 16.36 56.2292 16.856C55.7172 17.336 55.4612 17.976 55.4612 18.776V21.248C55.4612 22.016 55.7252 22.664 56.2532 23.192C56.7812 23.704 57.4372 23.96 58.2212 23.96ZM65.8395 8.192H68.9115V15.416C69.2795 14.904 69.7915 14.504 70.4475 14.216C71.1195 13.912 71.8475 13.76 72.6315 13.76C73.9915 13.76 75.0795 14.208 75.8955 15.104C76.7275 16 77.1435 17.232 77.1435 18.8V26H74.0715V19.016C74.0715 18.088 73.8715 17.36 73.4715 16.832C73.0715 16.304 72.5195 16.04 71.8155 16.04C70.9355 16.04 70.2315 16.352 69.7035 16.976C69.1755 17.584 68.9115 18.416 68.9115 19.472V26H65.8395V8.192ZM81.5687 12.608C80.9767 12.608 80.5047 12.448 80.1527 12.128C79.8007 11.792 79.6247 11.352 79.6247 10.808C79.6247 10.264 79.8007 9.832 80.1527 9.512C80.5047 9.176 80.9767 9.008 81.5687 9.008C82.1607 9.008 82.6327 9.176 82.9847 9.512C83.3527 9.832 83.5367 10.264 83.5367 10.808C83.5367 11.352 83.3607 11.792 83.0087 12.128C82.6567 12.448 82.1767 12.608 81.5687 12.608ZM80.0567 14H83.1047V26H80.0567V14ZM89.9312 26.24C88.8912 26.24 87.9712 26.032 87.1712 25.616C86.3872 25.2 85.8352 24.648 85.5152 23.96L87.4112 22.64C87.6992 23.04 88.0672 23.36 88.5152 23.6C88.9632 23.84 89.4192 23.96 89.8832 23.96C90.4272 23.96 90.8752 23.824 91.2272 23.552C91.5792 23.264 91.7552 22.912 91.7552 22.496C91.7552 22.16 91.6272 21.896 91.3712 21.704C91.1152 21.496 90.5712 21.232 89.7392 20.912C88.2832 20.352 87.2592 19.784 86.6672 19.208C86.0752 18.632 85.7792 17.92 85.7792 17.072C85.7792 16.08 86.1792 15.28 86.9792 14.672C87.7952 14.064 88.8752 13.76 90.2192 13.76C91.1152 13.76 91.9232 13.936 92.6432 14.288C93.3632 14.624 93.9472 15.112 94.3952 15.752L92.6192 17.072C92.0592 16.384 91.2992 16.04 90.3392 16.04C89.8592 16.04 89.4832 16.128 89.2112 16.304C88.9552 16.464 88.8272 16.704 88.8272 17.024C88.8272 17.248 88.8832 17.432 88.9952 17.576C89.1072 17.72 89.3232 17.872 89.6432 18.032C89.9632 18.192 90.4752 18.408 91.1792 18.68C92.1232 19.048 92.8512 19.408 93.3632 19.76C93.8912 20.096 94.2592 20.472 94.4672 20.888C94.6912 21.288 94.8032 21.776 94.8032 22.352C94.8032 23.12 94.5952 23.8 94.1792 24.392C93.7792 24.968 93.2112 25.424 92.4752 25.76C91.7392 26.08 90.8912 26.24 89.9312 26.24ZM101.845 26.24C100.613 26.24 99.6529 25.904 98.9649 25.232C98.2769 24.56 97.9329 23.616 97.9329 22.4V16.28H95.7489V14H97.9329V10.904L100.909 10.04H101.005V14H104.485V16.28H101.005V21.944C101.005 22.632 101.165 23.136 101.485 23.456C101.805 23.776 102.293 23.936 102.949 23.936C103.573 23.936 104.157 23.84 104.701 23.648L104.845 25.736C104.125 26.072 103.125 26.24 101.845 26.24ZM116.123 23.216H110.339L109.499 26H105.899L111.707 9.2H114.755L120.563 26H116.963L116.123 23.216ZM115.283 20.456L113.243 13.736L111.179 20.456H115.283ZM123.074 9.2H126.506V26H123.074V9.2Z" fill="black"/>
<path fill-rule="evenodd" clip-rule="evenodd" d="M7.36655 9.37824C8.3597 7.52943 10.9582 7.54357 11.9321 9.40307L12.7895 11.0401L14.7385 10.8298C16.7014 10.6181 18.1687 12.6372 17.4077 14.5024L16.6891 16.2634L18.2299 17.7202C19.5804 18.997 19.0773 21.2922 17.3236 21.8552L15.3102 22.5016L15.2024 24.6487C15.1083 26.5253 13.0706 27.5981 11.526 26.5844L9.51778 25.2665L7.44898 26.6143C5.90975 27.6171 3.88534 26.5552 3.78006 24.6898L3.65609 22.4931L1.68929 21.8742C-0.0993034 21.3113 -0.591469 18.9569 0.815344 17.6933L2.34164 16.3224L1.61233 14.4413C0.892511 12.5847 2.35215 10.608 4.29223 10.812L6.47315 11.0414L7.36655 9.37824ZM5.92909 12.0542L4.18609 11.8709C3.02204 11.7484 2.14626 12.9345 2.57815 14.0484L3.17097 15.5775L3.81369 15.0002C4.49491 14.3883 5.06676 13.6594 5.50353 12.8464L5.92909 12.0542ZM3.57809 16.6275L4.49886 15.8005C5.27091 15.107 5.91899 14.281 6.414 13.3595L7.05178 12.1722L8.75281 12.3511C9.36032 12.415 9.97266 12.4142 10.58 12.3487L12.2038 12.1735L12.8485 13.4044C13.3131 14.2914 13.9189 15.0928 14.641 15.7755L15.4499 16.5403L15.0378 17.5502C14.6456 18.5113 14.4184 19.5345 14.3662 20.5748L14.3094 21.7073L12.9299 22.1502C12.1905 22.3875 11.4848 22.7235 10.831 23.1495L9.51983 24.0037L8.25645 23.1745C7.58168 22.7317 6.85121 22.385 6.08516 22.1439L4.65186 21.6929L4.58256 20.4649C4.52802 19.4985 4.32243 18.5473 3.97363 17.6477L3.57809 16.6275ZM2.74875 17.3724L1.50051 18.4936C0.705352 19.2078 0.983531 20.5386 1.99448 20.8567L3.59211 21.3594L3.54509 20.5263C3.49697 19.6736 3.31557 18.8344 3.0078 18.0406L2.74875 17.3724ZM4.71584 22.8266L4.81753 24.6284C4.87703 25.6828 6.02126 26.2829 6.89126 25.7161L8.55317 24.6334L7.69582 24.0708C7.10043 23.68 6.4559 23.3741 5.77997 23.1614L4.71584 22.8266ZM10.4844 24.6367L12.0866 25.6882C12.9597 26.2612 14.1114 25.6548 14.1646 24.5941L14.2526 22.8411L13.2407 23.1659C12.5883 23.3753 11.9656 23.6718 11.3887 24.0476L10.4844 24.6367ZM15.367 21.3678L17.0128 20.8395C18.004 20.5213 18.2884 19.224 17.5251 18.5023L16.2626 17.3087L15.9966 17.9606C15.6506 18.8087 15.4501 19.7115 15.4041 20.6294L15.367 21.3678ZM15.8764 15.4949L16.4488 14.0919C16.9055 12.9728 16.0251 11.7614 14.8474 11.8884L13.3201 12.0531L13.7643 12.9012C14.1742 13.6839 14.7087 14.391 15.3459 14.9934L15.8764 15.4949ZM11.6732 11.1605L10.4712 11.2901C9.93529 11.3479 9.39499 11.3486 8.85895 11.2923L7.59584 11.1594L8.27702 9.89136C8.87291 8.78208 10.432 8.79056 11.0163 9.90626L11.6732 11.1605Z" fill="url(#paint0_linear_31_2)"/>
<path fill-rule="evenodd" clip-rule="evenodd" d="M7.36655 9.37824C8.3597 7.52943 10.9582 7.54357 11.9321 9.40307L12.7895 11.0401L14.7385 10.8298C16.7014 10.6181 18.1687 12.6372 17.4077 14.5024L16.6891 16.2634L18.2299 17.7202C19.5804 18.997 19.0773 21.2922 17.3236 21.8552L15.3102 22.5016L15.2024 24.6487C15.1083 26.5253 13.0706 27.5981 11.526 26.5844L9.51778 25.2665L7.44898 26.6143C5.90975 27.6171 3.88534 26.5552 3.78006 24.6898L3.65609 22.4931L1.68929 21.8742C-0.0993034 21.3113 -0.591469 18.9569 0.815344 17.6933L2.34164 16.3224L1.61233 14.4413C0.892511 12.5847 2.35215 10.608 4.29223 10.812L6.47315 11.0414L7.36655 9.37824ZM5.92909 12.0542L4.18609 11.8709C3.02204 11.7484 2.14626 12.9345 2.57815 14.0484L3.17097 15.5775L3.81369 15.0002C4.49491 14.3883 5.06676 13.6594 5.50353 12.8464L5.92909 12.0542ZM3.57809 16.6275L4.49886 15.8005C5.27091 15.107 5.91899 14.281 6.414 13.3595L7.05178 12.1722L8.75281 12.3511C9.36032 12.415 9.97266 12.4142 10.58 12.3487L12.2038 12.1735L12.8485 13.4044C13.3131 14.2914 13.9189 15.0928 14.641 15.7755L15.4499 16.5403L15.0378 17.5502C14.6456 18.5113 14.4184 19.5345 14.3662 20.5748L14.3094 21.7073L12.9299 22.1502C12.1905 22.3875 11.4848 22.7235 10.831 23.1495L9.51983 24.0037L8.25645 23.1745C7.58168 22.7317 6.85121 22.385 6.08516 22.1439L4.65186 21.6929L4.58256 20.4649C4.52802 19.4985 4.32243 18.5473 3.97363 17.6477L3.57809 16.6275ZM2.74875 17.3724L1.50051 18.4936C0.705352 19.2078 0.983531 20.5386 1.99448 20.8567L3.59211 21.3594L3.54509 20.5263C3.49697 19.6736 3.31557 18.8344 3.0078 18.0406L2.74875 17.3724ZM4.71584 22.8266L4.81753 24.6284C4.87703 25.6828 6.02126 26.2829 6.89126 25.7161L8.55317 24.6334L7.69582 24.0708C7.10043 23.68 6.4559 23.3741 5.77997 23.1614L4.71584 22.8266ZM10.4844 24.6367L12.0866 25.6882C12.9597 26.2612 14.1114 25.6548 14.1646 24.5941L14.2526 22.8411L13.2407 23.1659C12.5883 23.3753 11.9656 23.6718 11.3887 24.0476L10.4844 24.6367ZM15.367 21.3678L17.0128 20.8395C18.004 20.5213 18.2884 19.224 17.5251 18.5023L16.2626 17.3087L15.9966 17.9606C15.6506 18.8087 15.4501 19.7115 15.4041 20.6294L15.367 21.3678ZM15.8764 15.4949L16.4488 14.0919C16.9055 12.9728 16.0251 11.7614 14.8474 11.8884L13.3201 12.0531L13.7643 12.9012C14.1742 13.6839 14.7087 14.391 15.3459 14.9934L15.8764 15.4949ZM11.6732 11.1605L10.4712 11.2901C9.93529 11.3479 9.39499 11.3486 8.85895 11.2923L7.59584 11.1594L8.27702 9.89136C8.87291 8.78208 10.432 8.79056 11.0163 9.90626L11.6732 11.1605Z" fill="url(#paint1_linear_31_2)"/>
<defs>
<linearGradient id="paint0_linear_31_2" x1="14.5667" y1="9.61932" x2="5.11752" y2="26.3887" gradientUnits="userSpaceOnUse">
<stop stop-color="#FF1080"/>
<stop offset="0.963543" stop-color="#42C4FF"/>
</linearGradient>
<linearGradient id="paint1_linear_31_2" x1="4.11667" y1="10.375" x2="19.2385" y2="21.4382" gradientUnits="userSpaceOnUse">
<stop stop-color="#FF9124"/>
<stop offset="0.225429" stop-color="#FF9798" stop-opacity="0.519085"/>
<stop offset="0.375" stop-color="#EE988B" stop-opacity="0.2"/>
<stop offset="0.515" stop-color="#ED90A9" stop-opacity="0"/>
<stop offset="0.610586" stop-color="#EC88C5" stop-opacity="0.2"/>
<stop offset="1" stop-color="#EA7AFA"/>
</linearGradient>
</defs>
</svg>
