<svg width="128" height="33" viewBox="0 0 128 33" fill="none" xmlns="http://www.w3.org/2000/svg">
<path d="M29.2651 26.24C28.0011 26.24 26.8571 25.984 25.8331 25.472C24.8251 24.96 24.0011 24.224 23.3611 23.264L25.3531 21.344C25.8811 21.968 26.5211 22.48 27.2731 22.88C28.0251 23.28 28.7291 23.48 29.3851 23.48C30.1211 23.48 30.7131 23.312 31.1611 22.976C31.6091 22.64 31.8331 22.2 31.8331 21.656C31.8331 21.256 31.7611 20.928 31.6171 20.672C31.4731 20.416 31.2011 20.16 30.8011 19.904C30.4011 19.632 29.7451 19.272 28.8331 18.824C27.6331 18.232 26.6891 17.68 26.0011 17.168C25.3131 16.656 24.8011 16.104 24.4651 15.512C24.1451 14.904 23.9851 14.2 23.9851 13.4C23.9851 12.52 24.2171 11.744 24.6811 11.072C25.1451 10.4 25.8011 9.88 26.6491 9.512C27.4971 9.144 28.4731 8.96 29.5771 8.96C30.7931 8.96 31.8651 9.192 32.7931 9.656C33.7371 10.12 34.4251 10.76 34.8571 11.576L32.6731 13.208C31.8731 12.216 30.8891 11.72 29.7211 11.72C28.9851 11.72 28.4171 11.864 28.0171 12.152C27.6171 12.44 27.4171 12.848 27.4171 13.376C27.4171 13.696 27.5131 13.984 27.7051 14.24C27.9131 14.496 28.2811 14.776 28.8091 15.08C29.3371 15.384 30.1291 15.784 31.1851 16.28C32.2091 16.76 33.0091 17.24 33.5851 17.72C34.1771 18.2 34.6011 18.736 34.8571 19.328C35.1131 19.92 35.2411 20.624 35.2411 21.44C35.2411 22.4 34.9931 23.248 34.4971 23.984C34.0171 24.704 33.3211 25.264 32.4091 25.664C31.5131 26.048 30.4651 26.24 29.2651 26.24ZM42.8439 26.24C40.9079 26.24 39.3959 25.688 38.3079 24.584C37.2199 23.48 36.6759 21.952 36.6759 20C36.6759 18.048 37.2199 16.52 38.3079 15.416C39.3959 14.312 40.9079 13.76 42.8439 13.76C44.7799 13.76 46.2919 14.312 47.3799 15.416C48.4839 16.52 49.0359 18.048 49.0359 20C49.0359 21.952 48.4839 23.48 47.3799 24.584C46.2919 25.688 44.7799 26.24 42.8439 26.24ZM42.8439 23.96C43.8199 23.96 44.5879 23.608 45.1479 22.904C45.7079 22.2 45.9879 21.232 45.9879 20C45.9879 18.768 45.7079 17.8 45.1479 17.096C44.5879 16.392 43.8199 16.04 42.8439 16.04C41.8679 16.04 41.0999 16.392 40.5399 17.096C39.9959 17.8 39.7239 18.768 39.7239 20C39.7239 21.232 39.9959 22.2 40.5399 22.904C41.0999 23.608 41.8679 23.96 42.8439 23.96ZM51.0783 17.192C51.0783 15.896 51.0463 14.832 50.9823 14H53.8623C53.9103 14.48 53.9343 15.008 53.9343 15.584H53.9823C54.3823 15.008 54.9023 14.56 55.5423 14.24C56.1823 13.92 56.8943 13.76 57.6783 13.76C59.1983 13.76 60.3983 14.32 61.2783 15.44C62.1583 16.56 62.5983 18.088 62.5983 20.024C62.5983 21.96 62.1503 23.48 61.2543 24.584C60.3743 25.688 59.1503 26.24 57.5823 26.24C56.8143 26.24 56.1343 26.112 55.5423 25.856C54.9503 25.6 54.5103 25.24 54.2223 24.776H54.1503V31.808H51.0783V17.192ZM56.9103 23.96C57.7583 23.96 58.4063 23.616 58.8543 22.928C59.3023 22.224 59.5263 21.224 59.5263 19.928C59.5263 17.384 58.6703 16.112 56.9583 16.112C56.1263 16.112 55.4463 16.36 54.9183 16.856C54.4063 17.336 54.1503 17.976 54.1503 18.776V21.248C54.1503 22.016 54.4143 22.664 54.9423 23.192C55.4703 23.704 56.1263 23.96 56.9103 23.96ZM64.5286 8.192H67.6006V15.416C67.9686 14.904 68.4806 14.504 69.1366 14.216C69.8086 13.912 70.5366 13.76 71.3206 13.76C72.6806 13.76 73.7686 14.208 74.5846 15.104C75.4166 16 75.8326 17.232 75.8326 18.8V26H72.7606V19.016C72.7606 18.088 72.5606 17.36 72.1606 16.832C71.7606 16.304 71.2086 16.04 70.5046 16.04C69.6246 16.04 68.9206 16.352 68.3926 16.976C67.8646 17.584 67.6006 18.416 67.6006 19.472V26H64.5286V8.192ZM80.2578 12.608C79.6658 12.608 79.1938 12.448 78.8418 12.128C78.4898 11.792 78.3138 11.352 78.3138 10.808C78.3138 10.264 78.4898 9.832 78.8418 9.512C79.1938 9.176 79.6658 9.008 80.2578 9.008C80.8498 9.008 81.3218 9.176 81.6738 9.512C82.0418 9.832 82.2258 10.264 82.2258 10.808C82.2258 11.352 82.0498 11.792 81.6978 12.128C81.3458 12.448 80.8658 12.608 80.2578 12.608ZM78.7458 14H81.7938V26H78.7458V14ZM88.6203 26.24C87.5803 26.24 86.6603 26.032 85.8603 25.616C85.0763 25.2 84.5243 24.648 84.2043 23.96L86.1003 22.64C86.3883 23.04 86.7563 23.36 87.2043 23.6C87.6523 23.84 88.1083 23.96 88.5723 23.96C89.1163 23.96 89.5643 23.824 89.9163 23.552C90.2683 23.264 90.4443 22.912 90.4443 22.496C90.4443 22.16 90.3163 21.896 90.0603 21.704C89.8043 21.496 89.2603 21.232 88.4283 20.912C86.9723 20.352 85.9483 19.784 85.3563 19.208C84.7643 18.632 84.4683 17.92 84.4683 17.072C84.4683 16.08 84.8683 15.28 85.6683 14.672C86.4843 14.064 87.5643 13.76 88.9083 13.76C89.8043 13.76 90.6123 13.936 91.3323 14.288C92.0523 14.624 92.6363 15.112 93.0843 15.752L91.3083 17.072C90.7483 16.384 89.9883 16.04 89.0283 16.04C88.5483 16.04 88.1723 16.128 87.9003 16.304C87.6443 16.464 87.5163 16.704 87.5163 17.024C87.5163 17.248 87.5723 17.432 87.6843 17.576C87.7963 17.72 88.0123 17.872 88.3323 18.032C88.6523 18.192 89.1643 18.408 89.8683 18.68C90.8123 19.048 91.5403 19.408 92.0523 19.76C92.5803 20.096 92.9483 20.472 93.1563 20.888C93.3803 21.288 93.4923 21.776 93.4923 22.352C93.4923 23.12 93.2843 23.8 92.8683 24.392C92.4683 24.968 91.9003 25.424 91.1643 25.76C90.4283 26.08 89.5803 26.24 88.6203 26.24ZM100.534 26.24C99.3021 26.24 98.3421 25.904 97.6541 25.232C96.9661 24.56 96.6221 23.616 96.6221 22.4V16.28H94.4381V14H96.6221V10.904L99.5981 10.04H99.6941V14H103.174V16.28H99.6941V21.944C99.6941 22.632 99.8541 23.136 100.174 23.456C100.494 23.776 100.982 23.936 101.638 23.936C102.262 23.936 102.846 23.84 103.39 23.648L103.534 25.736C102.814 26.072 101.814 26.24 100.534 26.24ZM114.812 23.216H109.028L108.188 26H104.588L110.396 9.2H113.444L119.252 26H115.652L114.812 23.216ZM113.972 20.456L111.932 13.736L109.868 20.456H113.972ZM121.763 9.2H125.195V26H121.763V9.2Z" fill="black"/>
<path fill-rule="evenodd" clip-rule="evenodd" d="M7.9467 9.76323C8.88324 8.02398 11.3336 8.03728 12.252 9.7866L13.0605 11.3266L14.8985 11.1288C16.7495 10.9297 18.1332 12.829 17.4155 14.5837L16.7379 16.2404L18.1909 17.6108C19.4645 18.812 18.99 20.9712 17.3362 21.5008L15.4376 22.1089L15.336 24.1288C15.2472 25.8942 13.3257 26.9034 11.8691 25.9498L9.97532 24.71L8.02443 25.9779C6.57292 26.9212 4.66389 25.9223 4.56462 24.1675L4.44771 22.1009L2.59301 21.5187C0.906356 20.9892 0.442242 18.7743 1.76887 17.5855L3.20818 16.2959L2.52043 14.5262C1.84164 12.7797 3.21809 10.9201 5.0476 11.112L7.10421 11.3278L7.9467 9.76323ZM6.59116 12.2806L4.94751 12.1081C3.8498 11.993 3.02394 13.1087 3.43121 14.1567L3.99025 15.5951L4.59633 15.052C5.23873 14.4764 5.77798 13.7907 6.18986 13.0258L6.59116 12.2806ZM4.37415 16.5829L5.24244 15.8049C5.97049 15.1525 6.58164 14.3754 7.04844 13.5086L7.64987 12.3916L9.25395 12.5599C9.82683 12.62 10.4043 12.6193 10.977 12.5576L12.5083 12.3929L13.1162 13.5508C13.5543 14.3852 14.1256 15.1391 14.8065 15.7814L15.5693 16.5008L15.1807 17.4509C14.8109 18.3551 14.5967 19.3177 14.5474 20.2963L14.4939 21.3617L13.193 21.7783C12.4957 22.0016 11.8302 22.3177 11.2137 22.7184L9.97725 23.522L8.78587 22.742C8.14956 22.3254 7.46073 21.9992 6.73834 21.7724L5.38673 21.3481L5.32138 20.1929C5.26995 19.2838 5.07607 18.389 4.74715 17.5426L4.37415 16.5829ZM3.59209 17.2837L2.41499 18.3384C1.66515 19.0103 1.92747 20.2622 2.8808 20.5615L4.38738 21.0344L4.34304 20.2507C4.29766 19.4485 4.1266 18.659 3.83637 17.9122L3.59209 17.2837ZM5.44706 22.4146L5.54295 24.1097C5.59906 25.1016 6.67808 25.6662 7.4985 25.133L9.06568 24.1144L8.25719 23.5851C7.69574 23.2175 7.08795 22.9297 6.45055 22.7296L5.44706 22.4146ZM10.8869 24.1175L12.3977 25.1067C13.2211 25.6457 14.3071 25.0752 14.3573 24.0774L14.4402 22.4283L13.4861 22.7338C12.8708 22.9309 12.2836 23.2097 11.7396 23.5633L10.8869 24.1175ZM15.4912 21.0423L17.0431 20.5453C17.9779 20.246 18.2461 19.0256 17.5262 18.3466L16.3357 17.2237L16.0849 17.8371C15.7586 18.6348 15.5695 19.4842 15.5261 20.3477L15.4912 21.0423ZM15.9715 15.5175L16.5113 14.1976C16.942 13.1448 16.1117 12.0052 15.0012 12.1247L13.5609 12.2796L13.9798 13.0774C14.3663 13.8137 14.8704 14.4789 15.4712 15.0456L15.9715 15.5175ZM12.0079 11.4398L10.8744 11.5618C10.369 11.6162 9.85952 11.6169 9.35404 11.5638L8.16292 11.4389L8.80528 10.2459C9.3672 9.2024 10.8374 9.21038 11.3885 10.26L12.0079 11.4398Z" fill="url(#paint0_linear_32_622)"/>
<path fill-rule="evenodd" clip-rule="evenodd" d="M7.9467 9.76323C8.88324 8.02398 11.3336 8.03728 12.252 9.7866L13.0605 11.3266L14.8985 11.1288C16.7495 10.9297 18.1332 12.829 17.4155 14.5837L16.7379 16.2404L18.1909 17.6108C19.4645 18.812 18.99 20.9712 17.3362 21.5008L15.4376 22.1089L15.336 24.1288C15.2472 25.8942 13.3257 26.9034 11.8691 25.9498L9.97532 24.71L8.02443 25.9779C6.57292 26.9212 4.66389 25.9223 4.56462 24.1675L4.44771 22.1009L2.59301 21.5187C0.906356 20.9892 0.442242 18.7743 1.76887 17.5855L3.20818 16.2959L2.52043 14.5262C1.84164 12.7797 3.21809 10.9201 5.0476 11.112L7.10421 11.3278L7.9467 9.76323ZM6.59116 12.2806L4.94751 12.1081C3.8498 11.993 3.02394 13.1087 3.43121 14.1567L3.99025 15.5951L4.59633 15.052C5.23873 14.4764 5.77798 13.7907 6.18986 13.0258L6.59116 12.2806ZM4.37415 16.5829L5.24244 15.8049C5.97049 15.1525 6.58164 14.3754 7.04844 13.5086L7.64987 12.3916L9.25395 12.5599C9.82683 12.62 10.4043 12.6193 10.977 12.5576L12.5083 12.3929L13.1162 13.5508C13.5543 14.3852 14.1256 15.1391 14.8065 15.7814L15.5693 16.5008L15.1807 17.4509C14.8109 18.3551 14.5967 19.3177 14.5474 20.2963L14.4939 21.3617L13.193 21.7783C12.4957 22.0016 11.8302 22.3177 11.2137 22.7184L9.97725 23.522L8.78587 22.742C8.14956 22.3254 7.46073 21.9992 6.73834 21.7724L5.38673 21.3481L5.32138 20.1929C5.26995 19.2838 5.07607 18.389 4.74715 17.5426L4.37415 16.5829ZM3.59209 17.2837L2.41499 18.3384C1.66515 19.0103 1.92747 20.2622 2.8808 20.5615L4.38738 21.0344L4.34304 20.2507C4.29766 19.4485 4.1266 18.659 3.83637 17.9122L3.59209 17.2837ZM5.44706 22.4146L5.54295 24.1097C5.59906 25.1016 6.67808 25.6662 7.4985 25.133L9.06568 24.1144L8.25719 23.5851C7.69574 23.2175 7.08795 22.9297 6.45055 22.7296L5.44706 22.4146ZM10.8869 24.1175L12.3977 25.1067C13.2211 25.6457 14.3071 25.0752 14.3573 24.0774L14.4402 22.4283L13.4861 22.7338C12.8708 22.9309 12.2836 23.2097 11.7396 23.5633L10.8869 24.1175ZM15.4912 21.0423L17.0431 20.5453C17.9779 20.246 18.2461 19.0256 17.5262 18.3466L16.3357 17.2237L16.0849 17.8371C15.7586 18.6348 15.5695 19.4842 15.5261 20.3477L15.4912 21.0423ZM15.9715 15.5175L16.5113 14.1976C16.942 13.1448 16.1117 12.0052 15.0012 12.1247L13.5609 12.2796L13.9798 13.0774C14.3663 13.8137 14.8704 14.4789 15.4712 15.0456L15.9715 15.5175ZM12.0079 11.4398L10.8744 11.5618C10.369 11.6162 9.85952 11.6169 9.35404 11.5638L8.16292 11.4389L8.80528 10.2459C9.3672 9.2024 10.8374 9.21038 11.3885 10.26L12.0079 11.4398Z" fill="url(#paint1_linear_32_622)"/>
<g opacity="0.2">
<mask id="path-3-inside-1_32_622" fill="white">
<path d="M0.0569973 17.8741C0.0569973 12.1589 4.49007 7.52592 9.95855 7.52592C15.427 7.52592 19.8601 12.1589 19.8601 17.8741C19.8601 23.5892 15.427 28.2222 9.95855 28.2222C4.49007 28.2222 0.0569973 23.5892 0.0569973 17.8741ZM18.5729 17.8741C18.5729 12.9019 14.7161 8.87119 9.95855 8.87119C5.20098 8.87119 1.3442 12.9019 1.3442 17.8741C1.3442 22.8462 5.20098 26.877 9.95855 26.877C14.7161 26.877 18.5729 22.8462 18.5729 17.8741Z"/>
</mask>
<path d="M0.0569973 17.8741C0.0569973 12.1589 4.49007 7.52592 9.95855 7.52592C15.427 7.52592 19.8601 12.1589 19.8601 17.8741C19.8601 23.5892 15.427 28.2222 9.95855 28.2222C4.49007 28.2222 0.0569973 23.5892 0.0569973 17.8741ZM18.5729 17.8741C18.5729 12.9019 14.7161 8.87119 9.95855 8.87119C5.20098 8.87119 1.3442 12.9019 1.3442 17.8741C1.3442 22.8462 5.20098 26.877 9.95855 26.877C14.7161 26.877 18.5729 22.8462 18.5729 17.8741Z" stroke="url(#paint2_linear_32_622)" stroke-width="32" stroke-linecap="round" mask="url(#path-3-inside-1_32_622)"/>
</g>
<mask id="path-4-inside-2_32_622" fill="white">
<path d="M0.0569973 17.8741C0.0569973 12.1589 4.49007 7.52592 9.95855 7.52592C15.427 7.52592 19.8601 12.1589 19.8601 17.8741C19.8601 23.5892 15.427 28.2222 9.95855 28.2222C4.49007 28.2222 0.0569973 23.5892 0.0569973 17.8741ZM18.5729 17.8741C18.5729 12.9019 14.7161 8.87119 9.95855 8.87119C5.20098 8.87119 1.3442 12.9019 1.3442 17.8741C1.3442 22.8462 5.20098 26.877 9.95855 26.877C14.7161 26.877 18.5729 22.8462 18.5729 17.8741Z"/>
</mask>
<path d="M0.0569973 17.8741C0.0569973 12.1589 4.49007 7.52592 9.95855 7.52592C15.427 7.52592 19.8601 12.1589 19.8601 17.8741C19.8601 23.5892 15.427 28.2222 9.95855 28.2222C4.49007 28.2222 0.0569973 23.5892 0.0569973 17.8741ZM18.5729 17.8741C18.5729 12.9019 14.7161 8.87119 9.95855 8.87119C5.20098 8.87119 1.3442 12.9019 1.3442 17.8741C1.3442 22.8462 5.20098 26.877 9.95855 26.877C14.7161 26.877 18.5729 22.8462 18.5729 17.8741Z" stroke="url(#paint3_linear_32_622)" stroke-width="32" stroke-linecap="round" mask="url(#path-4-inside-2_32_622)"/>
<defs>
<linearGradient id="paint0_linear_32_622" x1="14.7364" y1="9.99003" x2="5.85833" y2="25.7839" gradientUnits="userSpaceOnUse">
<stop stop-color="#FF1080"/>
<stop offset="0.963543" stop-color="#42C4FF"/>
</linearGradient>
<linearGradient id="paint1_linear_32_622" x1="4.88204" y1="10.7009" x2="19.1181" y2="21.1411" gradientUnits="userSpaceOnUse">
<stop stop-color="#FF9124"/>
<stop offset="0.225429" stop-color="#FF9798" stop-opacity="0.519085"/>
<stop offset="0.375" stop-color="#EE988B" stop-opacity="0.2"/>
<stop offset="0.515" stop-color="#ED90A9" stop-opacity="0"/>
<stop offset="0.610586" stop-color="#EC88C5" stop-opacity="0.2"/>
<stop offset="1" stop-color="#EA7AFA"/>
</linearGradient>
<linearGradient id="paint2_linear_32_622" x1="2.99877" y1="25.4477" x2="17.1677" y2="10.8114" gradientUnits="userSpaceOnUse">
<stop stop-color="#E8C187"/>
<stop offset="1" stop-color="#E2ACEB"/>
</linearGradient>
<linearGradient id="paint3_linear_32_622" x1="2.99877" y1="25.4477" x2="17.1677" y2="10.8114" gradientUnits="userSpaceOnUse">
<stop stop-color="#E8C187"/>
<stop offset="1" stop-color="#E2ACEB"/>
</linearGradient>
</defs>
</svg>
