<svg width="124" height="30" viewBox="0 0 124 30" fill="none" xmlns="http://www.w3.org/2000/svg">
<path d="M15.8816 4.19131L13.9026 6.00869C13.1604 6.67826 12.7646 7.58696 12.7646 8.59131C12.7646 9.54783 12.3688 10.4565 11.6762 11.1261L11.4288 11.3652L9.15293 4.23913" fill="#666666"/>
<path d="M22.6102 10.5522L19.8891 10.4565C18.8995 10.4087 17.91 10.7913 17.2174 11.4609C16.5247 12.1304 15.5847 12.4652 14.5952 12.4652H14.2489L17.91 5.91304" fill="#666666"/>
<path d="M22.6102 19.6391L20.7796 17.7261C20.087 17.0087 19.1469 16.5783 18.1574 16.5783C17.1679 16.5783 16.2774 16.1478 15.5847 15.4783L15.3373 15.2391L22.7586 13.1826" fill="#666666"/>
<path d="M15.8816 25.9522L16.03 23.3217C16.0795 22.3652 15.7331 21.4087 15.0405 20.6913C14.3973 20.0217 14.0015 19.0652 14.051 18.1565V17.8217L20.7796 21.5044" fill="#666666"/>
<path d="M6.48126 25.7609L8.50974 24.0391C9.25187 23.4174 9.69715 22.5087 9.74663 21.5044C9.7961 20.5478 10.2414 19.687 10.934 19.0174L11.1814 18.7783L13.1604 26" fill="#666666"/>
<path d="M0.0494814 19.113L2.77062 19.3043C3.76013 19.4 4.74963 19.0652 5.49176 18.3957C6.23389 17.7739 7.17392 17.4391 8.16342 17.487H8.50975L4.55173 23.8957" fill="#666666"/>
<path d="M0.494756 10.0739L2.22639 12.0826C2.86957 12.8 3.8096 13.2783 4.7991 13.3261C5.78861 13.3739 6.67916 13.8043 7.32234 14.5217L7.52024 14.7609L2.86102e-06 16.4826" fill="#666666"/>
<path d="M7.47077 4L7.22339 6.63043C7.12444 7.58696 7.42129 8.54348 8.11394 9.3087C8.75712 10.0261 9.05397 10.9348 9.0045 11.8913L8.95502 12.2261L2.42428 8.25653" fill="#666666"/>
<path d="M29.464 19.256V18.632C29.464 18.36 29.6 18.224 29.872 18.224H31.408C31.68 18.224 31.816 18.36 31.816 18.632V19.064C31.816 19.736 31.96 20.224 32.248 20.528C32.552 20.816 33.048 20.96 33.736 20.96H35.392C36.08 20.96 36.576 20.808 36.88 20.504C37.184 20.184 37.336 19.672 37.336 18.968V18.416C37.336 17.904 37.136 17.504 36.736 17.216C36.352 16.912 35.872 16.72 35.296 16.64C34.72 16.544 34.088 16.416 33.4 16.256C32.712 16.096 32.08 15.912 31.504 15.704C30.928 15.496 30.44 15.104 30.04 14.528C29.656 13.952 29.464 13.216 29.464 12.32V11.312C29.464 10.144 29.792 9.232 30.448 8.576C31.12 7.904 32.04 7.568 33.208 7.568H35.752C36.936 7.568 37.856 7.904 38.512 8.576C39.184 9.232 39.52 10.144 39.52 11.312V11.84C39.52 12.112 39.384 12.248 39.112 12.248H37.576C37.304 12.248 37.168 12.112 37.168 11.84V11.528C37.168 10.84 37.016 10.352 36.712 10.064C36.424 9.76 35.936 9.608 35.248 9.608H33.736C33.048 9.608 32.552 9.768 32.248 10.088C31.96 10.392 31.816 10.92 31.816 11.672V12.416C31.816 13.136 32.336 13.624 33.376 13.88C33.84 13.992 34.344 14.088 34.888 14.168C35.448 14.248 36.008 14.368 36.568 14.528C37.128 14.688 37.64 14.904 38.104 15.176C38.568 15.432 38.944 15.832 39.232 16.376C39.52 16.904 39.664 17.552 39.664 18.32V19.256C39.664 20.424 39.328 21.344 38.656 22.016C38 22.672 37.088 23 35.92 23H33.232C32.064 23 31.144 22.672 30.472 22.016C29.8 21.344 29.464 20.424 29.464 19.256ZM48.2524 23H46.1404C44.9564 23 44.0364 22.672 43.3804 22.016C42.7404 21.36 42.4204 20.448 42.4204 19.28V14.48C42.4204 13.296 42.7404 12.384 43.3804 11.744C44.0364 11.088 44.9564 10.76 46.1404 10.76H48.2524C49.4204 10.76 50.3324 11.088 50.9884 11.744C51.6604 12.384 51.9964 13.296 51.9964 14.48V19.28C51.9964 20.448 51.6604 21.36 50.9884 22.016C50.3324 22.672 49.4204 23 48.2524 23ZM46.4764 20.96H47.9404C49.0924 20.96 49.6684 20.376 49.6684 19.208V14.552C49.6684 13.384 49.0924 12.8 47.9404 12.8H46.4764C45.8684 12.8 45.4284 12.944 45.1564 13.232C44.8844 13.504 44.7484 13.944 44.7484 14.552V19.208C44.7484 19.816 44.8844 20.264 45.1564 20.552C45.4284 20.824 45.8684 20.96 46.4764 20.96ZM56.6742 26.384H55.1622C54.8902 26.384 54.7542 26.248 54.7542 25.976V11.168C54.7542 10.896 54.8902 10.76 55.1622 10.76H56.6742C56.9462 10.76 57.0822 10.896 57.0822 11.168V12.032H57.1782C57.5622 11.184 58.3702 10.76 59.6022 10.76H60.8262C61.9782 10.76 62.8582 11.08 63.4662 11.72C64.0902 12.36 64.4022 13.28 64.4022 14.48V19.28C64.4022 20.464 64.0902 21.384 63.4662 22.04C62.8582 22.68 61.9782 23 60.8262 23H59.6022C58.3702 23 57.5622 22.576 57.1782 21.728H57.0822V25.976C57.0822 26.248 56.9462 26.384 56.6742 26.384ZM59.0502 20.96H60.3222C61.4742 20.96 62.0502 20.368 62.0502 19.184V14.576C62.0502 13.392 61.4742 12.8 60.3222 12.8H59.0502C57.7382 12.8 57.0822 13.48 57.0822 14.84V18.92C57.0822 20.28 57.7382 20.96 59.0502 20.96ZM69.0961 23H67.5841C67.3121 23 67.1761 22.864 67.1761 22.592V6.536C67.1761 6.264 67.3121 6.128 67.5841 6.128H69.0961C69.3681 6.128 69.5041 6.264 69.5041 6.536V12.032H69.6001C69.9841 11.184 70.7921 10.76 72.0241 10.76H73.0801C74.2481 10.76 75.1441 11.08 75.7681 11.72C76.3921 12.36 76.7041 13.28 76.7041 14.48V22.592C76.7041 22.864 76.5601 23 76.2721 23H74.7601C74.4881 23 74.3521 22.864 74.3521 22.592V14.576C74.3521 13.392 73.7681 12.8 72.6001 12.8H71.4721C70.1601 12.8 69.5041 13.48 69.5041 14.84V22.592C69.5041 22.864 69.3681 23 69.0961 23ZM79.6945 8.72V6.536C79.6945 6.28 79.8225 6.152 80.0785 6.152H81.6385C81.8945 6.152 82.0225 6.28 82.0225 6.536V8.72C82.0225 8.992 81.8945 9.128 81.6385 9.128H80.0785C79.8225 9.128 79.6945 8.992 79.6945 8.72ZM79.6945 22.592V11.168C79.6945 10.896 79.8225 10.76 80.0785 10.76H81.6145C81.8865 10.76 82.0225 10.896 82.0225 11.168V22.592C82.0225 22.752 81.9905 22.864 81.9265 22.928C81.8785 22.976 81.7825 23 81.6385 23H80.1025C79.8305 23 79.6945 22.864 79.6945 22.592ZM89.5441 23H85.1281C84.8561 23 84.7201 22.864 84.7201 22.592V21.416C84.7201 21.16 84.8561 21.032 85.1281 21.032H89.1601C90.2001 21.032 90.7201 20.672 90.7201 19.952V19.664C90.7201 19.024 90.3441 18.536 89.5921 18.2L86.9761 16.952C86.1601 16.568 85.5681 16.144 85.2001 15.68C84.8321 15.216 84.6481 14.608 84.6481 13.856C84.6481 11.792 85.7921 10.76 88.0801 10.76H92.0641C92.3201 10.76 92.4481 10.896 92.4481 11.168V12.344C92.4481 12.616 92.3201 12.752 92.0641 12.752H88.5601C88.0801 12.752 87.7121 12.84 87.4561 13.016C87.2001 13.176 87.0721 13.392 87.0721 13.664V13.928C87.0721 14.44 87.4801 14.888 88.2961 15.272L90.9361 16.616C91.7681 16.984 92.3361 17.424 92.6401 17.936C92.9601 18.432 93.1201 19.08 93.1201 19.88C93.1201 21.96 91.9281 23 89.5441 23ZM95.9658 12.8H94.8138C94.6538 12.8 94.5418 12.776 94.4778 12.728C94.4298 12.664 94.4058 12.56 94.4058 12.416V11.168C94.4058 10.896 94.5418 10.76 94.8138 10.76H95.9658C96.1258 10.76 96.2058 10.68 96.2058 10.52V8.36C96.2058 8.088 96.3498 7.952 96.6378 7.952H98.1498C98.4218 7.952 98.5578 8.088 98.5578 8.36V10.52C98.5578 10.68 98.6458 10.76 98.8218 10.76H101.054C101.342 10.76 101.486 10.896 101.486 11.168V12.416C101.486 12.672 101.342 12.8 101.054 12.8H98.8218C98.6458 12.8 98.5578 12.88 98.5578 13.04V19.208C98.5578 20.376 99.1578 20.96 100.358 20.96H101.294C101.582 20.96 101.726 21.096 101.726 21.368V22.616C101.726 22.872 101.582 23 101.294 23H99.9978C98.8138 23 97.8858 22.68 97.2138 22.04C96.5418 21.4 96.2058 20.496 96.2058 19.328V13.04C96.2058 12.88 96.1258 12.8 95.9658 12.8ZM105.1 23H103.372C103.148 23 103.068 22.864 103.132 22.592L107.308 7.976C107.388 7.704 107.58 7.568 107.884 7.568H110.284C110.604 7.568 110.796 7.704 110.86 7.976L115.036 22.592C115.1 22.864 115.012 23 114.772 23H113.068C112.924 23 112.82 22.976 112.756 22.928C112.708 22.864 112.668 22.752 112.636 22.592L111.724 19.472H106.444L105.532 22.592C105.468 22.864 105.324 23 105.1 23ZM109.036 9.872L106.924 17.552H111.268L109.132 9.872H109.036ZM119.856 7.976V22.592C119.856 22.864 119.72 23 119.448 23H117.936C117.664 23 117.528 22.864 117.528 22.592V7.976C117.528 7.704 117.664 7.568 117.936 7.568H119.448C119.72 7.568 119.856 7.704 119.856 7.976Z" fill="white"/>
</svg>
