<svg width="128" height="33" viewBox="0 0 128 33" fill="none" xmlns="http://www.w3.org/2000/svg">
<path d="M29.9024 26.24C28.6384 26.24 27.4944 25.984 26.4704 25.472C25.4624 24.96 24.6384 24.224 23.9984 23.264L25.9904 21.344C26.5184 21.968 27.1584 22.48 27.9104 22.88C28.6624 23.28 29.3664 23.48 30.0224 23.48C30.7584 23.48 31.3504 23.312 31.7984 22.976C32.2464 22.64 32.4704 22.2 32.4704 21.656C32.4704 21.256 32.3984 20.928 32.2544 20.672C32.1104 20.416 31.8384 20.16 31.4384 19.904C31.0384 19.632 30.3824 19.272 29.4704 18.824C28.2704 18.232 27.3264 17.68 26.6384 17.168C25.9504 16.656 25.4384 16.104 25.1024 15.512C24.7824 14.904 24.6224 14.2 24.6224 13.4C24.6224 12.52 24.8544 11.744 25.3184 11.072C25.7824 10.4 26.4384 9.88 27.2864 9.512C28.1344 9.144 29.1104 8.96 30.2144 8.96C31.4304 8.96 32.5024 9.192 33.4304 9.656C34.3744 10.12 35.0624 10.76 35.4944 11.576L33.3104 13.208C32.5104 12.216 31.5264 11.72 30.3584 11.72C29.6224 11.72 29.0544 11.864 28.6544 12.152C28.2544 12.44 28.0544 12.848 28.0544 13.376C28.0544 13.696 28.1504 13.984 28.3424 14.24C28.5504 14.496 28.9184 14.776 29.4464 15.08C29.9744 15.384 30.7664 15.784 31.8224 16.28C32.8464 16.76 33.6464 17.24 34.2224 17.72C34.8144 18.2 35.2384 18.736 35.4944 19.328C35.7504 19.92 35.8784 20.624 35.8784 21.44C35.8784 22.4 35.6304 23.248 35.1344 23.984C34.6544 24.704 33.9584 25.264 33.0464 25.664C32.1504 26.048 31.1024 26.24 29.9024 26.24ZM43.4812 26.24C41.5452 26.24 40.0332 25.688 38.9452 24.584C37.8572 23.48 37.3132 21.952 37.3132 20C37.3132 18.048 37.8572 16.52 38.9452 15.416C40.0332 14.312 41.5452 13.76 43.4812 13.76C45.4172 13.76 46.9292 14.312 48.0172 15.416C49.1212 16.52 49.6732 18.048 49.6732 20C49.6732 21.952 49.1212 23.48 48.0172 24.584C46.9292 25.688 45.4172 26.24 43.4812 26.24ZM43.4812 23.96C44.4572 23.96 45.2252 23.608 45.7852 22.904C46.3452 22.2 46.6252 21.232 46.6252 20C46.6252 18.768 46.3452 17.8 45.7852 17.096C45.2252 16.392 44.4572 16.04 43.4812 16.04C42.5052 16.04 41.7372 16.392 41.1772 17.096C40.6332 17.8 40.3612 18.768 40.3612 20C40.3612 21.232 40.6332 22.2 41.1772 22.904C41.7372 23.608 42.5052 23.96 43.4812 23.96ZM51.7156 17.192C51.7156 15.896 51.6836 14.832 51.6196 14H54.4996C54.5476 14.48 54.5716 15.008 54.5716 15.584H54.6196C55.0196 15.008 55.5396 14.56 56.1796 14.24C56.8196 13.92 57.5316 13.76 58.3156 13.76C59.8356 13.76 61.0356 14.32 61.9156 15.44C62.7956 16.56 63.2356 18.088 63.2356 20.024C63.2356 21.96 62.7876 23.48 61.8916 24.584C61.0116 25.688 59.7876 26.24 58.2196 26.24C57.4516 26.24 56.7716 26.112 56.1796 25.856C55.5876 25.6 55.1476 25.24 54.8596 24.776H54.7876V31.808H51.7156V17.192ZM57.5476 23.96C58.3956 23.96 59.0436 23.616 59.4916 22.928C59.9396 22.224 60.1636 21.224 60.1636 19.928C60.1636 17.384 59.3076 16.112 57.5956 16.112C56.7636 16.112 56.0836 16.36 55.5556 16.856C55.0436 17.336 54.7876 17.976 54.7876 18.776V21.248C54.7876 22.016 55.0516 22.664 55.5796 23.192C56.1076 23.704 56.7636 23.96 57.5476 23.96ZM65.1659 8.192H68.2379V15.416C68.6059 14.904 69.1179 14.504 69.7739 14.216C70.4459 13.912 71.1739 13.76 71.9579 13.76C73.3179 13.76 74.4059 14.208 75.2219 15.104C76.0539 16 76.4699 17.232 76.4699 18.8V26H73.3979V19.016C73.3979 18.088 73.1979 17.36 72.7979 16.832C72.3979 16.304 71.8459 16.04 71.1419 16.04C70.2619 16.04 69.5579 16.352 69.0299 16.976C68.5019 17.584 68.2379 18.416 68.2379 19.472V26H65.1659V8.192ZM80.8951 12.608C80.3031 12.608 79.8311 12.448 79.4791 12.128C79.1271 11.792 78.9511 11.352 78.9511 10.808C78.9511 10.264 79.1271 9.832 79.4791 9.512C79.8311 9.176 80.3031 9.008 80.8951 9.008C81.4871 9.008 81.9591 9.176 82.3111 9.512C82.6791 9.832 82.8631 10.264 82.8631 10.808C82.8631 11.352 82.6871 11.792 82.3351 12.128C81.9831 12.448 81.5031 12.608 80.8951 12.608ZM79.3831 14H82.4311V26H79.3831V14ZM89.2576 26.24C88.2176 26.24 87.2976 26.032 86.4976 25.616C85.7136 25.2 85.1616 24.648 84.8416 23.96L86.7376 22.64C87.0256 23.04 87.3936 23.36 87.8416 23.6C88.2896 23.84 88.7456 23.96 89.2096 23.96C89.7536 23.96 90.2016 23.824 90.5536 23.552C90.9056 23.264 91.0816 22.912 91.0816 22.496C91.0816 22.16 90.9536 21.896 90.6976 21.704C90.4416 21.496 89.8976 21.232 89.0656 20.912C87.6096 20.352 86.5856 19.784 85.9936 19.208C85.4016 18.632 85.1056 17.92 85.1056 17.072C85.1056 16.08 85.5056 15.28 86.3056 14.672C87.1216 14.064 88.2016 13.76 89.5456 13.76C90.4416 13.76 91.2496 13.936 91.9696 14.288C92.6896 14.624 93.2736 15.112 93.7216 15.752L91.9456 17.072C91.3856 16.384 90.6256 16.04 89.6656 16.04C89.1856 16.04 88.8096 16.128 88.5376 16.304C88.2816 16.464 88.1536 16.704 88.1536 17.024C88.1536 17.248 88.2096 17.432 88.3216 17.576C88.4336 17.72 88.6496 17.872 88.9696 18.032C89.2896 18.192 89.8016 18.408 90.5056 18.68C91.4496 19.048 92.1776 19.408 92.6896 19.76C93.2176 20.096 93.5856 20.472 93.7936 20.888C94.0176 21.288 94.1296 21.776 94.1296 22.352C94.1296 23.12 93.9216 23.8 93.5056 24.392C93.1056 24.968 92.5376 25.424 91.8016 25.76C91.0656 26.08 90.2176 26.24 89.2576 26.24ZM101.171 26.24C99.9394 26.24 98.9794 25.904 98.2914 25.232C97.6034 24.56 97.2594 23.616 97.2594 22.4V16.28H95.0754V14H97.2594V10.904L100.235 10.04H100.331V14H103.811V16.28H100.331V21.944C100.331 22.632 100.491 23.136 100.811 23.456C101.131 23.776 101.619 23.936 102.275 23.936C102.899 23.936 103.483 23.84 104.027 23.648L104.171 25.736C103.451 26.072 102.451 26.24 101.171 26.24ZM115.449 23.216H109.665L108.825 26H105.225L111.033 9.2H114.081L119.889 26H116.289L115.449 23.216ZM114.609 20.456L112.569 13.736L110.505 20.456H114.609ZM122.4 9.2H125.832V26H122.4V9.2Z" fill="white"/>
<path fill-rule="evenodd" clip-rule="evenodd" d="M8.584 9.76323C9.52055 8.02398 11.9709 8.03728 12.8893 9.78659L13.6978 11.3266L15.5358 11.1288C17.3868 10.9297 18.7705 12.829 18.0528 14.5837L17.3752 16.2404L18.8282 17.6108C20.1018 18.812 19.6273 20.9712 17.9735 21.5008L16.0749 22.1089L15.9733 24.1288C15.8845 25.8942 13.963 26.9034 12.5064 25.9498L10.6126 24.71L8.66174 25.9779C7.21023 26.9212 5.3012 25.9223 5.20193 24.1675L5.08502 22.1009L3.23032 21.5187C1.54366 20.9892 1.07955 18.7743 2.40618 17.5855L3.84549 16.2959L3.15774 14.5262C2.47895 12.7797 3.85539 10.9201 5.6849 11.112L7.74152 11.3278L8.584 9.76323ZM7.22847 12.2806L5.58482 12.1081C4.48711 11.993 3.66124 13.1087 4.06852 14.1567L4.62755 15.5951L5.23364 15.052C5.87603 14.4764 6.41528 13.7907 6.82716 13.0258L7.22847 12.2806ZM5.01146 16.5829L5.87975 15.8049C6.6078 15.1525 7.21895 14.3754 7.68575 13.5086L8.28717 12.3916L9.89125 12.5599C10.4641 12.62 11.0416 12.6193 11.6143 12.5576L13.1456 12.3929L13.7535 13.5508C14.1916 14.3852 14.7629 15.1391 15.4438 15.7814L16.2066 16.5008L15.818 17.4509C15.4482 18.3551 15.234 19.3177 15.1847 20.2963L15.1312 21.3617L13.8303 21.7783C13.133 22.0016 12.4675 22.3177 11.851 22.7184L10.6146 23.522L9.42318 22.742C8.78687 22.3254 8.09804 21.9992 7.37564 21.7724L6.02404 21.3481L5.95868 20.1929C5.90725 19.2838 5.71338 18.389 5.38446 17.5426L5.01146 16.5829ZM4.2294 17.2837L3.05229 18.3384C2.30246 19.0103 2.56478 20.2622 3.51811 20.5615L5.02469 21.0344L4.98035 20.2507C4.93497 19.4485 4.76391 18.659 4.47368 17.9122L4.2294 17.2837ZM6.08437 22.4146L6.18026 24.1097C6.23637 25.1016 7.31539 25.6662 8.1358 25.133L9.70299 24.1144L8.8945 23.5851C8.33305 23.2175 7.72526 22.9297 7.08785 22.7296L6.08437 22.4146ZM11.5242 24.1175L13.0351 25.1067C13.8584 25.6457 14.9444 25.0752 14.9946 24.0774L15.0775 22.4283L14.1234 22.7338C13.5081 22.9309 12.9209 23.2097 12.3769 23.5633L11.5242 24.1175ZM16.1285 21.0423L17.6804 20.5453C18.6152 20.246 18.8834 19.0256 18.1636 18.3466L16.973 17.2237L16.7222 17.8371C16.3959 18.6348 16.2068 19.4842 16.1634 20.3477L16.1285 21.0423ZM16.6088 15.5175L17.1487 14.1976C17.5793 13.1448 16.749 12.0052 15.6385 12.1247L14.1982 12.2796L14.6171 13.0774C15.0036 13.8137 15.5077 14.4789 16.1085 15.0456L16.6088 15.5175ZM12.6452 11.4398L11.5117 11.5618C11.0063 11.6162 10.4968 11.6169 9.99134 11.5638L8.80022 11.4389L9.44258 10.2459C10.0045 9.2024 11.4747 9.21038 12.0258 10.26L12.6452 11.4398Z" fill="url(#paint0_linear_35_12)"/>
<path fill-rule="evenodd" clip-rule="evenodd" d="M8.584 9.76323C9.52055 8.02398 11.9709 8.03728 12.8893 9.78659L13.6978 11.3266L15.5358 11.1288C17.3868 10.9297 18.7705 12.829 18.0528 14.5837L17.3752 16.2404L18.8282 17.6108C20.1018 18.812 19.6273 20.9712 17.9735 21.5008L16.0749 22.1089L15.9733 24.1288C15.8845 25.8942 13.963 26.9034 12.5064 25.9498L10.6126 24.71L8.66174 25.9779C7.21023 26.9212 5.3012 25.9223 5.20193 24.1675L5.08502 22.1009L3.23032 21.5187C1.54366 20.9892 1.07955 18.7743 2.40618 17.5855L3.84549 16.2959L3.15774 14.5262C2.47895 12.7797 3.85539 10.9201 5.6849 11.112L7.74152 11.3278L8.584 9.76323ZM7.22847 12.2806L5.58482 12.1081C4.48711 11.993 3.66124 13.1087 4.06852 14.1567L4.62755 15.5951L5.23364 15.052C5.87603 14.4764 6.41528 13.7907 6.82716 13.0258L7.22847 12.2806ZM5.01146 16.5829L5.87975 15.8049C6.6078 15.1525 7.21895 14.3754 7.68575 13.5086L8.28717 12.3916L9.89125 12.5599C10.4641 12.62 11.0416 12.6193 11.6143 12.5576L13.1456 12.3929L13.7535 13.5508C14.1916 14.3852 14.7629 15.1391 15.4438 15.7814L16.2066 16.5008L15.818 17.4509C15.4482 18.3551 15.234 19.3177 15.1847 20.2963L15.1312 21.3617L13.8303 21.7783C13.133 22.0016 12.4675 22.3177 11.851 22.7184L10.6146 23.522L9.42318 22.742C8.78687 22.3254 8.09804 21.9992 7.37564 21.7724L6.02404 21.3481L5.95868 20.1929C5.90725 19.2838 5.71338 18.389 5.38446 17.5426L5.01146 16.5829ZM4.2294 17.2837L3.05229 18.3384C2.30246 19.0103 2.56478 20.2622 3.51811 20.5615L5.02469 21.0344L4.98035 20.2507C4.93497 19.4485 4.76391 18.659 4.47368 17.9122L4.2294 17.2837ZM6.08437 22.4146L6.18026 24.1097C6.23637 25.1016 7.31539 25.6662 8.1358 25.133L9.70299 24.1144L8.8945 23.5851C8.33305 23.2175 7.72526 22.9297 7.08785 22.7296L6.08437 22.4146ZM11.5242 24.1175L13.0351 25.1067C13.8584 25.6457 14.9444 25.0752 14.9946 24.0774L15.0775 22.4283L14.1234 22.7338C13.5081 22.9309 12.9209 23.2097 12.3769 23.5633L11.5242 24.1175ZM16.1285 21.0423L17.6804 20.5453C18.6152 20.246 18.8834 19.0256 18.1636 18.3466L16.973 17.2237L16.7222 17.8371C16.3959 18.6348 16.2068 19.4842 16.1634 20.3477L16.1285 21.0423ZM16.6088 15.5175L17.1487 14.1976C17.5793 13.1448 16.749 12.0052 15.6385 12.1247L14.1982 12.2796L14.6171 13.0774C15.0036 13.8137 15.5077 14.4789 16.1085 15.0456L16.6088 15.5175ZM12.6452 11.4398L11.5117 11.5618C11.0063 11.6162 10.4968 11.6169 9.99134 11.5638L8.80022 11.4389L9.44258 10.2459C10.0045 9.2024 11.4747 9.21038 12.0258 10.26L12.6452 11.4398Z" fill="url(#paint1_linear_35_12)"/>
<g opacity="0.2">
<mask id="path-3-inside-1_35_12" fill="white">
<path d="M0.694296 17.8741C0.694296 12.1589 5.12737 7.52592 10.5959 7.52592C16.0643 7.52592 20.4974 12.1589 20.4974 17.8741C20.4974 23.5892 16.0643 28.2222 10.5959 28.2222C5.12737 28.2222 0.694296 23.5892 0.694296 17.8741ZM19.2102 17.8741C19.2102 12.9019 15.3534 8.87118 10.5959 8.87118C5.83828 8.87118 1.9815 12.9019 1.9815 17.8741C1.9815 22.8462 5.83828 26.877 10.5959 26.877C15.3534 26.877 19.2102 22.8462 19.2102 17.8741Z"/>
</mask>
<path d="M0.694296 17.8741C0.694296 12.1589 5.12737 7.52592 10.5959 7.52592C16.0643 7.52592 20.4974 12.1589 20.4974 17.8741C20.4974 23.5892 16.0643 28.2222 10.5959 28.2222C5.12737 28.2222 0.694296 23.5892 0.694296 17.8741ZM19.2102 17.8741C19.2102 12.9019 15.3534 8.87118 10.5959 8.87118C5.83828 8.87118 1.9815 12.9019 1.9815 17.8741C1.9815 22.8462 5.83828 26.877 10.5959 26.877C15.3534 26.877 19.2102 22.8462 19.2102 17.8741Z" stroke="url(#paint2_linear_35_12)" stroke-width="32" stroke-linecap="round" mask="url(#path-3-inside-1_35_12)"/>
</g>
<mask id="path-4-inside-2_35_12" fill="white">
<path d="M0.694296 17.8741C0.694296 12.1589 5.12737 7.52592 10.5959 7.52592C16.0643 7.52592 20.4974 12.1589 20.4974 17.8741C20.4974 23.5892 16.0643 28.2222 10.5959 28.2222C5.12737 28.2222 0.694296 23.5892 0.694296 17.8741ZM19.2102 17.8741C19.2102 12.9019 15.3534 8.87118 10.5959 8.87118C5.83828 8.87118 1.9815 12.9019 1.9815 17.8741C1.9815 22.8462 5.83828 26.877 10.5959 26.877C15.3534 26.877 19.2102 22.8462 19.2102 17.8741Z"/>
</mask>
<path d="M0.694296 17.8741C0.694296 12.1589 5.12737 7.52592 10.5959 7.52592C16.0643 7.52592 20.4974 12.1589 20.4974 17.8741C20.4974 23.5892 16.0643 28.2222 10.5959 28.2222C5.12737 28.2222 0.694296 23.5892 0.694296 17.8741ZM19.2102 17.8741C19.2102 12.9019 15.3534 8.87118 10.5959 8.87118C5.83828 8.87118 1.9815 12.9019 1.9815 17.8741C1.9815 22.8462 5.83828 26.877 10.5959 26.877C15.3534 26.877 19.2102 22.8462 19.2102 17.8741Z" stroke="url(#paint3_linear_35_12)" stroke-width="32" stroke-linecap="round" mask="url(#path-4-inside-2_35_12)"/>
<defs>
<linearGradient id="paint0_linear_35_12" x1="15.3737" y1="9.99002" x2="6.49564" y2="25.7839" gradientUnits="userSpaceOnUse">
<stop stop-color="#FF1080"/>
<stop offset="0.963543" stop-color="#42C4FF"/>
</linearGradient>
<linearGradient id="paint1_linear_35_12" x1="5.51934" y1="10.7009" x2="19.7554" y2="21.1411" gradientUnits="userSpaceOnUse">
<stop stop-color="#FF9124"/>
<stop offset="0.225429" stop-color="#FF9798" stop-opacity="0.519085"/>
<stop offset="0.375" stop-color="#EE988B" stop-opacity="0.2"/>
<stop offset="0.515" stop-color="#ED90A9" stop-opacity="0"/>
<stop offset="0.610586" stop-color="#EC88C5" stop-opacity="0.2"/>
<stop offset="1" stop-color="#EA7AFA"/>
</linearGradient>
<linearGradient id="paint2_linear_35_12" x1="3.63606" y1="25.4477" x2="17.805" y2="10.8114" gradientUnits="userSpaceOnUse">
<stop stop-color="#E8C187"/>
<stop offset="1" stop-color="#E2ACEB"/>
</linearGradient>
<linearGradient id="paint3_linear_35_12" x1="3.63606" y1="25.4477" x2="17.805" y2="10.8114" gradientUnits="userSpaceOnUse">
<stop stop-color="#E8C187"/>
<stop offset="1" stop-color="#E2ACEB"/>
</linearGradient>
</defs>
</svg>
